<svg width="64" height="64" viewBox="0 0 64 64" fill="none" xmlns="http://www.w3.org/2000/svg">
<path d="M54.0114 44.867C53.3458 44.8664 52.6905 45.0319 52.1049 45.3485L46.9629 40.4125H42.7129C44.5585 38.266 45.6463 35.5717 45.8084 32.7455H49.3764C49.5632 33.7302 50.1107 34.6099 50.9117 35.2123C51.7127 35.8147 52.7097 36.0966 53.7076 36.0028C54.7055 35.909 55.6325 35.4463 56.3072 34.7052C56.982 33.964 57.3559 32.9978 57.3559 31.9955C57.3559 30.9932 56.982 30.027 56.3072 29.2858C55.6325 28.5447 54.7055 28.082 53.7076 27.9882C52.7097 27.8944 51.7127 28.1763 50.9117 28.7787C50.1107 29.3811 49.5632 30.2608 49.3764 31.2455H45.8084C45.6462 28.4196 44.5587 25.7255 42.7134 23.579H46.9634L52.1049 18.6425C52.99 19.1216 54.022 19.2533 54.9991 19.0119C55.9762 18.7705 56.828 18.1732 57.3881 17.337C57.9482 16.5008 58.1762 15.4857 58.0275 14.4903C57.8788 13.4949 57.3642 12.5907 56.5842 11.9547C55.8043 11.3186 54.8151 10.9963 53.8101 11.0509C52.8052 11.1055 51.8567 11.5329 51.1502 12.2498C50.4437 12.9666 50.03 13.9211 49.99 14.9268C49.95 15.9324 50.2866 16.9169 50.9339 17.6875L46.3599 22.079H41.1999C39.0676 20.2814 36.4099 19.2235 33.6254 19.064V12.9375C34.6103 12.7507 35.4901 12.2032 36.0926 11.4021C36.6951 10.601 36.9771 9.60386 36.8833 8.60583C36.7895 7.60781 36.3267 6.68068 35.5855 6.00584C34.8442 5.33099 33.8779 4.95699 32.8754 4.95699C31.873 4.95699 30.9067 5.33099 30.1654 6.00584C29.4242 6.68068 28.9614 7.60781 28.8676 8.60583C28.7738 9.60386 29.0558 10.601 29.6583 11.4021C30.2608 12.2032 31.1406 12.7507 32.1254 12.9375V19.064C29.3406 19.2231 26.6825 20.281 24.5499 22.079H19.4124L14.8809 17.35C15.4524 16.5282 15.6968 15.5228 15.5662 14.5304C15.4356 13.5379 14.9395 12.6299 14.1748 11.984C13.4102 11.338 12.4321 11.0005 11.4318 11.0376C10.4315 11.0746 9.48104 11.4835 8.76627 12.1842C8.05151 12.885 7.62388 13.8272 7.56705 14.8266C7.51021 15.8259 7.82825 16.8105 8.45895 17.5878C9.08966 18.3651 9.98765 18.8791 10.9773 19.0293C11.9669 19.1795 12.977 18.9551 13.8099 18.4L18.7719 23.58H23.0399C21.1947 25.7265 20.1071 28.4206 19.9449 31.2465H13.9404C13.7537 30.2618 13.2062 29.3821 12.4052 28.7797C11.6042 28.1773 10.6072 27.8954 9.60928 27.9892C8.61139 28.083 7.68439 28.5457 7.00964 29.2868C6.33489 30.028 5.96094 30.9942 5.96094 31.9965C5.96094 32.9988 6.33489 33.965 7.00964 34.7062C7.68439 35.4473 8.61139 35.91 9.60928 36.0038C10.6072 36.0976 11.6042 35.8157 12.4052 35.2133C13.2062 34.6109 13.7537 33.7312 13.9404 32.7465H19.9449C20.1071 35.5726 21.1947 38.2668 23.0399 40.4135H18.7719L13.8099 45.592C12.9722 45.0323 11.9558 44.8054 10.9596 44.9558C9.96341 45.1061 9.05919 45.6228 8.42394 46.4048C7.78869 47.1867 7.46815 48.1776 7.52506 49.1835C7.58198 50.1893 8.01226 51.1378 8.73166 51.8431C9.45107 52.5484 10.4078 52.9598 11.4146 52.9968C12.4214 53.0338 13.4058 52.6937 14.175 52.043C14.9442 51.3924 15.4429 50.4782 15.5735 49.4792C15.7041 48.4802 15.4571 47.4685 14.8809 46.642L19.4124 41.9125H24.5499C26.6822 43.71 29.3397 44.7679 32.1239 44.9275V51.061C31.1389 51.2478 30.2591 51.7953 29.6564 52.5965C29.0538 53.3978 28.7718 54.395 28.8656 55.3932C28.9594 56.3913 29.4222 57.3186 30.1636 57.9935C30.9049 58.6685 31.8714 59.0425 32.8739 59.0425C33.8765 59.0425 34.843 58.6685 35.5843 57.9935C36.3257 57.3186 36.7885 56.3913 36.8823 55.3932C36.9761 54.395 36.6941 53.3978 36.0915 52.5965C35.4888 51.7953 34.609 51.2478 33.6239 51.061V44.928C36.409 44.7688 39.0673 43.7107 41.1999 41.9125H46.3594L50.9334 46.3035C50.3446 47.005 50.0128 47.8864 49.9927 48.802C49.9727 49.7176 50.2657 50.6127 50.8233 51.3393C51.3809 52.0658 52.1697 52.5804 53.0593 52.7979C53.949 53.0154 54.8862 52.9229 55.7161 52.5355C56.5461 52.1482 57.219 51.4893 57.6237 50.6677C58.0284 49.8461 58.1406 48.911 57.9419 48.017C57.7432 47.123 57.2453 46.3235 56.5307 45.7508C55.816 45.178 54.9273 44.8662 54.0114 44.867ZM53.3284 29.4705C53.8277 29.4706 54.3157 29.6187 54.7308 29.8962C55.1459 30.1736 55.4694 30.5679 55.6604 31.0291C55.8514 31.4904 55.9013 31.998 55.8039 32.4876C55.7065 32.9773 55.4661 33.4271 55.113 33.7801C54.76 34.1331 54.3102 34.3735 53.8206 34.471C53.3309 34.5684 52.8234 34.5184 52.3621 34.3274C51.9008 34.1364 51.5065 33.8129 51.2291 33.3979C50.9517 32.9828 50.8035 32.4948 50.8034 31.9955C50.8044 31.3261 51.0707 30.6844 51.544 30.2111C52.0173 29.7378 52.6591 29.4714 53.3284 29.4705ZM54.0114 12.5745C54.5108 12.5745 54.999 12.7226 55.4143 13C55.8295 13.2775 56.1531 13.6718 56.3442 14.1332C56.5354 14.5946 56.5854 15.1023 56.4879 15.5921C56.3905 16.0819 56.15 16.5318 55.7969 16.8849C55.4438 17.2381 54.9939 17.4786 54.504 17.576C54.0142 17.6734 53.5065 17.6234 53.0452 17.4323C52.5838 17.2412 52.1894 16.9176 51.912 16.5023C51.6345 16.0871 51.4864 15.5989 51.4864 15.0995C51.4874 14.4301 51.7537 13.7884 52.227 13.3151C52.7003 12.8418 53.3421 12.5754 54.0114 12.5745ZM11.5809 17.5745C11.0816 17.5743 10.5935 17.426 10.1784 17.1485C9.7633 16.8709 9.43982 16.4765 9.24886 16.0151C9.0579 15.5537 9.00804 15.046 9.10558 14.5563C9.20312 14.0665 9.44369 13.6167 9.79685 13.2637C10.15 12.9107 10.5999 12.6703 11.0897 12.5729C11.5795 12.4756 12.0871 12.5257 12.5485 12.7168C13.0098 12.9079 13.4041 13.2316 13.6815 13.6468C13.9589 14.062 14.1069 14.5501 14.1069 15.0495C14.1043 15.4614 13.9995 15.8661 13.8019 16.2275L12.7219 17.2625L12.7389 17.2805C12.3824 17.4707 11.985 17.5715 11.5809 17.5745ZM11.5809 51.466C11.0814 51.4659 10.5932 51.3177 10.1779 51.0401C9.76267 50.7625 9.43905 50.368 9.24799 49.9065C9.05694 49.445 9.00703 48.9372 9.10457 48.4473C9.20211 47.9574 9.44273 47.5075 9.796 47.1543C10.1493 46.8012 10.5993 46.5608 11.0892 46.4634C11.5792 46.3661 12.0869 46.4162 12.5484 46.6074C13.0098 46.7987 13.4042 47.1225 13.6816 47.5378C13.959 47.9532 14.107 48.4415 14.1069 48.941C14.1063 49.6107 13.8399 50.2527 13.3663 50.7262C12.8927 51.1997 12.2506 51.4655 11.5809 51.466ZM30.3499 8.986C30.3497 8.48644 30.4977 7.99804 30.7751 7.58258C31.0525 7.16713 31.4469 6.84327 31.9084 6.65198C32.3699 6.4607 32.8777 6.41057 33.3677 6.50794C33.8577 6.60532 34.3078 6.84582 34.6611 7.19903C35.0143 7.55223 35.2549 8.00228 35.3524 8.49224C35.4499 8.9822 35.3999 9.49006 35.2087 9.95158C35.0175 10.4131 34.6937 10.8076 34.2783 11.0851C33.8629 11.3625 33.3745 11.5106 32.8749 11.5105C32.2056 11.5097 31.5639 11.2435 31.0906 10.7702C30.6172 10.297 30.3509 9.65534 30.3499 8.986ZM9.98694 34.5205C9.48775 34.5201 8.99988 34.3717 8.585 34.0941C8.17013 33.8165 7.84687 33.4221 7.65608 32.9608C7.4653 32.4995 7.41557 31.992 7.51316 31.5025C7.61075 31.0129 7.8513 30.5633 8.20438 30.2104C8.55747 29.8575 9.00725 29.6172 9.49687 29.5199C9.98649 29.4226 10.494 29.4727 10.9551 29.6637C11.4163 29.8548 11.8105 30.1783 12.0879 30.5933C12.3653 31.0084 12.5133 31.4963 12.5134 31.9955C12.5127 32.6652 12.2462 33.3072 11.7725 33.7806C11.2988 34.254 10.6566 34.5201 9.98694 34.5205ZM32.8764 20.5405C35.1422 20.5404 37.357 21.2122 39.241 22.4709C41.1249 23.7296 42.5932 25.5187 43.4604 27.6119C44.3275 29.7052 44.5544 32.0085 44.1124 34.2307C43.6704 36.4529 42.5793 38.4941 40.9772 40.0963C39.3751 41.6984 37.3339 42.7894 35.1117 43.2314C32.8895 43.6734 30.5861 43.4465 28.4929 42.5794C26.3996 41.7123 24.6105 40.2439 23.3518 38.36C22.0931 36.4761 21.4213 34.2612 21.4214 31.9955C21.425 28.9585 22.633 26.047 24.7805 23.8995C26.9279 21.7521 29.8395 20.5441 32.8764 20.5405ZM35.3999 55.0125C35.4001 55.512 35.2522 56.0003 34.9749 56.4158C34.6975 56.8312 34.3032 57.155 33.8418 57.3464C33.3804 57.5377 32.8727 57.5879 32.3827 57.4907C31.8928 57.3934 31.4427 57.1531 31.0894 56.8C30.736 56.4469 30.4953 55.997 30.3977 55.5072C30.3 55.0173 30.3498 54.5095 30.5408 54.048C30.7318 53.5864 31.0553 53.1919 31.4705 52.9142C31.8857 52.6365 32.3739 52.4882 32.8734 52.488C33.543 52.4887 34.1849 52.7548 34.6585 53.228C35.1321 53.7013 35.3988 54.343 35.3999 55.0125ZM54.0094 51.4165C53.5103 51.4161 53.0224 51.2677 52.6075 50.9901C52.1926 50.7125 51.8694 50.3181 51.6786 49.8568C51.4878 49.3955 51.4381 48.888 51.5357 48.3985C51.6333 47.9089 51.8738 47.4593 52.2269 47.1064C52.58 46.7535 53.0298 46.5132 53.5194 46.4159C54.009 46.3186 54.5165 46.3687 54.9776 46.5597C55.4388 46.7508 55.833 47.0743 56.1104 47.4893C56.3877 47.9044 56.5358 48.3923 56.5359 48.8915C56.5351 49.5608 56.2689 50.2025 55.7957 50.6759C55.3224 51.1492 54.6808 51.4156 54.0114 51.4165H54.0094Z" fill="#5850EC"/>
<path d="M29.4 34.263H32.0686L32.7875 36.656H35.055L32.1641 27.335H29.4L26.55 36.6565H28.7346L29.4 34.263ZM30.257 30.709C30.407 30.171 30.5475 29.4645 30.685 28.912H30.7141C30.8516 29.462 31.0181 30.156 31.1831 30.709L31.764 32.687H29.7025L30.257 30.709Z" fill="#5850EC"/>
<path d="M38.4129 27.335H36.2969V36.6565H38.4129V27.335Z" fill="#5850EC"/>
</svg>
