<svg width="64" height="65" viewBox="0 0 64 65" fill="none" xmlns="http://www.w3.org/2000/svg">
<path d="M62.0895 33.9328C60.3701 33.9328 58.9372 33.9328 57.8865 33.9328C57.2178 33.9328 56.6447 33.9328 56.1671 33.9328C55.1163 33.9328 54.2566 33.9328 53.6835 34.2194C52.6328 32.691 51.8686 31.8313 51.2954 31.1627C50.2447 29.9209 50.2447 29.9209 50.2447 27.0552C50.2447 26.4821 50.2447 25.7179 50.2447 24.8582C50.2447 24.4761 50.0537 24.094 49.7671 23.903C49.0029 23.3298 48.2387 23.0433 47.4746 22.8522V12.5358C47.4746 10.9119 46.1372 9.57462 44.5134 9.57462H3.43873C1.81485 9.57462 0.477539 10.9119 0.477539 12.5358V38.9C0.477539 40.5239 1.81485 41.8612 3.43873 41.8612H7.35515V45.6821C7.35515 46.0642 7.5462 46.3507 7.83276 46.5418C7.92829 46.6373 8.11933 46.6373 8.31037 46.6373C8.50142 46.6373 8.69246 46.5418 8.88351 46.4463L15.6656 41.7657H29.3253C29.6119 42.6254 30.185 43.294 30.9492 43.7716C30.376 44.5358 30.185 45.491 30.2805 46.4463C30.4716 47.688 31.1402 48.5477 32.191 49.0254C31.7134 49.694 31.5223 50.4582 31.6178 51.2224C31.7134 52.8463 32.9552 54.4701 35.2477 54.4701H53.3969C53.6835 54.9478 54.1611 55.2343 54.6387 55.2343H62.2805C63.0447 55.2343 63.7134 54.5657 63.7134 53.8015V35.4612C63.5223 34.6015 62.8537 33.9328 62.0895 33.9328ZM15.2835 39.8552C15.0925 39.8552 14.9014 39.9507 14.7104 40.0463L9.17008 43.8672V40.906C9.17008 40.3328 8.78799 39.9507 8.21485 39.9507H3.43873C2.8656 39.9507 2.38799 39.4731 2.38799 38.9V12.5358C2.38799 11.9627 2.8656 11.4851 3.43873 11.4851H44.6089C45.182 11.4851 45.6596 11.9627 45.6596 12.5358V22.7567C44.991 22.9477 44.3223 23.3298 43.8447 23.903C42.6029 25.3358 42.0298 27.8194 42.4119 30.303L42.6984 32.1179H31.9044C30.8537 32.1179 29.8984 32.5955 29.2298 33.3597C28.5611 34.1239 28.2746 35.1746 28.4656 36.2254C28.6566 37.2761 29.1343 38.0403 29.8984 38.5179C29.6119 38.9 29.3253 39.2821 29.2298 39.7597H15.2835V39.8552ZM33.3372 51.1269C33.3372 50.4582 33.6238 49.5985 34.6746 49.4075C35.1522 49.3119 35.4387 48.9298 35.5343 48.5477C35.5343 48.0701 35.2477 47.688 34.8656 47.5925C34.7701 47.5925 34.6746 47.5925 34.579 47.5925H34.4835C34.388 47.5925 34.2925 47.5925 34.1969 47.5925C32.2865 47.5925 32.0954 46.5418 31.9999 46.2552C31.9044 45.7776 31.9999 45.3955 32.2865 45.0134C32.5731 44.6313 32.9552 44.4403 33.3372 44.3448C33.8149 44.2492 34.1969 43.8672 34.1969 43.294C34.1969 42.8164 33.7193 42.4343 33.2417 42.4343H32.7641C31.9044 42.4343 31.0447 41.6701 31.0447 40.906C31.0447 40.4283 31.1402 40.0463 31.5223 39.6642C31.8089 39.3776 32.2865 39.1866 32.6686 39.1866C33.1462 39.1866 33.5283 38.8045 33.6238 38.3269C33.7193 37.8492 33.4328 37.3716 32.9552 37.2761C32.8596 37.2761 32.7641 37.2761 32.5731 37.2761H32.4775C30.6626 37.2761 30.4716 36.3209 30.4716 35.9388C30.376 35.4612 30.4716 34.9836 30.8537 34.6015C31.1402 34.2194 31.6178 34.0283 32.0954 34.0283H43.8447C44.1313 34.0283 44.4178 33.9328 44.6089 33.7418C44.7999 33.5507 44.8955 33.2642 44.7999 32.9776L44.2268 30.1119C43.9402 28.2015 44.3223 26.291 45.182 25.2403C45.5641 24.7627 46.0417 24.5716 46.5193 24.5716C46.5193 24.5716 46.5193 24.5716 46.6148 24.5716C47.0925 24.5716 47.7611 24.7627 48.3343 25.2403C48.3343 25.9089 48.3343 26.5776 48.3343 27.0552C48.3343 30.3985 48.3343 30.6851 49.7671 32.5C50.4357 33.2642 51.391 34.4104 52.9193 36.703V52.8463H35.0566C33.8149 52.6552 33.3372 51.891 33.3372 51.1269ZM61.6119 53.5149H54.9253V35.9388C55.3074 35.9388 55.8805 35.9388 56.1671 35.9388C56.6447 35.9388 57.2178 35.9388 57.8865 35.9388C58.8417 35.9388 60.0835 35.9388 61.6119 35.9388V53.5149Z" fill="#5850EC"/>
<path d="M7.25967 17.1209H36.7761C37.3492 17.1209 37.7313 16.7388 37.7313 16.1657C37.7313 15.5925 37.3492 15.2104 36.7761 15.2104H7.25967C6.68653 15.2104 6.30444 15.5925 6.30444 16.1657C6.30444 16.7388 6.78206 17.1209 7.25967 17.1209ZM7.25967 21.897H36.7761C37.3492 21.897 37.7313 21.5149 37.7313 20.9418C37.7313 20.3687 37.3492 19.9866 36.7761 19.9866H7.25967C6.68653 19.9866 6.30444 20.3687 6.30444 20.9418C6.30444 21.5149 6.78206 21.897 7.25967 21.897ZM7.25967 26.6731H36.7761C37.3492 26.6731 37.7313 26.291 37.7313 25.7179C37.7313 25.1448 37.3492 24.7627 36.7761 24.7627H7.25967C6.68653 24.7627 6.30444 25.1448 6.30444 25.7179C6.30444 26.1955 6.78206 26.6731 7.25967 26.6731ZM26.3641 29.4433H7.25967C6.68653 29.4433 6.30444 29.8254 6.30444 30.3985C6.30444 30.9716 6.68653 31.3537 7.25967 31.3537H26.3641C26.9373 31.3537 27.3194 30.9716 27.3194 30.3985C27.3194 29.8254 26.8418 29.4433 26.3641 29.4433ZM19.7731 34.2194H7.25967C6.68653 34.2194 6.30444 34.6015 6.30444 35.1746C6.30444 35.7478 6.68653 36.1299 7.25967 36.1299H19.7731C20.3462 36.1299 20.7283 35.7478 20.7283 35.1746C20.7283 34.697 20.2507 34.2194 19.7731 34.2194ZM56.3582 38.6134C56.3582 39.1866 56.7403 39.5687 57.3134 39.5687H59.2238C59.797 39.5687 60.1791 39.1866 60.1791 38.6134C60.1791 38.0403 59.797 37.6582 59.2238 37.6582H57.3134C56.7403 37.6582 56.3582 38.0403 56.3582 38.6134Z" fill="#5850EC"/>
</svg>
