<svg width="64" height="64" viewBox="0 0 64 64" fill="none" xmlns="http://www.w3.org/2000/svg">
<path d="M53.9544 6.62214C53.9479 6.2806 53.6428 5.89061 53.2565 5.92249C39.6042 6.15641 24.8905 6.87906 11.5816 6.60304C11.3111 6.57309 11.0124 6.75361 10.9063 7.14601L9.81342 8.19744C9.67122 8.33069 9.6001 8.51732 9.6001 8.70417C9.86675 18.5173 10.0268 28.5796 10.2935 38.393C10.2935 38.5885 10.4535 38.7395 10.6401 38.7395L28.081 38.7263C27.8022 38.9327 27.5596 39.2198 27.3702 39.6109C26.7342 40.9639 27.4636 42.368 28.5149 43.3795C29.4569 44.2789 30.0101 44.4148 40.1737 49.1067C38.8849 50.6883 40.7803 52.8487 42.284 52.11C42.195 52.1537 43.2678 57.0398 43.9894 57.7136C44.822 58.491 45.5472 57.8805 45.3911 57.2576C44.6805 54.4262 44.4645 53.7434 43.6676 51.1176C46.5245 50.0147 49.25 48.9453 51.0513 46.6751C52.3765 49.4275 52.668 50.8273 52.9065 51.5018C53.2705 52.5313 54.4281 51.9907 54.2057 51.2185C53.5053 48.7884 52.9054 47.3999 51.8462 45.2665C51.9079 45.0301 51.9458 44.7808 51.9076 44.511C51.7778 43.6085 50.8187 42.9286 49.9744 43.2975C49.8962 43.3313 49.8287 43.3813 49.7693 43.4381C49.959 41.7521 49.5463 40.2477 48.9283 38.7042H53.0046C53.1468 38.7042 53.289 38.6419 53.3779 38.5351C53.5694 38.3201 54.4122 37.3752 54.3997 36.9685C54.3459 35.2462 54.0994 15.061 53.9544 6.62214ZM53.0539 36.2454L50.3676 36.2923C50.2035 26.7004 50.0763 16.6749 49.9157 7.32223C50.8283 7.30204 51.7312 7.2849 52.6312 7.26862C52.7902 16.6968 52.8959 26.8602 53.0539 36.2454ZM48.5825 7.35391C48.7466 16.9053 48.8709 26.7218 49.0343 36.3159L47.9446 36.3355C47.6102 35.5607 46.1136 31.9067 45.4779 31.2133C44.5452 30.197 43.1656 29.6812 42.1855 30.6864C41.5591 29.763 40.7103 29.3467 39.8819 29.3426C39.3504 29.3559 38.8585 29.5874 38.5085 29.9412C37.7152 29.439 36.8783 29.4511 36.1411 29.9049C35.7175 28.9025 35.2533 27.9142 34.6866 26.9737C33.9103 25.6832 32.6092 24.6806 31.3381 25.485C30.4409 26.0607 30.0337 27.7819 30.489 28.784C31.2588 30.5182 32.4774 33.7576 33.567 36.5577L18.0568 36.8769C17.885 26.8311 17.7478 17.8814 17.5784 7.99584C28.1352 7.99584 37.6381 7.61088 48.5825 7.35391ZM16.7235 36.903L12.754 36.9759C12.555 27.2392 12.259 18.023 12.2105 7.94593C13.5418 7.97001 14.8881 7.98347 16.2446 7.98976C16.4169 18.0462 16.5551 27.0685 16.7235 36.903ZM34.4179 38.7218C34.603 39.1734 34.7764 39.5894 34.9352 39.9594C34.0978 39.4613 33.1393 39.1314 31.8934 38.7237L34.4179 38.7218ZM49.5668 44.5353C49.5958 44.4307 49.6094 44.3296 49.6331 44.2263C49.7939 44.5258 50.1301 44.6662 50.4501 44.5275C50.4944 44.5397 50.5768 44.6265 50.5872 44.6994C50.8402 46.4742 43.8196 50.0851 42.3885 50.0987C42.023 50.0996 42 50.0753 41.9774 50.0527C41.954 49.8548 42.2027 49.3166 42.3012 49.2315C42.3575 49.2187 42.4036 49.1886 42.4527 49.1634C42.9546 49.289 43.341 49.3261 43.7517 49.3175C44.1198 49.307 44.4102 49.0006 44.3997 48.6326C44.3898 48.2645 44.0833 47.9702 43.7153 47.9841C41.3924 48.0621 32.7872 43.6373 30.6664 42.4748C29.9837 42.0043 29.2975 41.5488 28.5988 41.1482C28.3904 40.8871 28.3399 40.6824 28.5733 40.1855C29.1427 39.0128 31.2489 39.9384 32.5004 40.34C33.3251 40.6161 34.355 41.0154 35.0043 41.6638C35.2643 41.9242 35.6858 41.9234 35.9466 41.6647C36.0677 41.544 36.2196 41.4208 36.4123 41.2897C37.5291 40.523 34.1729 34.2326 32.1845 28.8843C31.9024 28.1249 31.4423 27.0007 32.056 26.6091C32.5541 26.2923 33.2411 27.1581 33.5443 27.6612C34.8395 29.8121 35.6664 32.272 36.4714 34.643C36.7536 35.4773 38.0174 35.0501 37.7335 34.2142C37.4162 33.2924 37.1322 32.4393 36.6585 31.189C36.8208 31.0089 37.1548 30.8604 37.3828 30.9025C38.2411 31.0489 38.1122 31.4672 39.398 34.6317C39.7308 35.4478 40.9651 34.9477 40.6332 34.13C39.9436 32.4352 39.7244 31.6773 39.3895 30.9576C39.6249 30.5935 40.2791 30.5106 40.8681 31.1586C41.4309 31.7749 41.8604 33.162 42.1081 33.972C42.3677 34.8162 43.6403 34.423 43.3832 33.5813C43.2191 33.0453 43.0812 32.6226 42.9168 32.1901C42.9769 31.8875 43.0666 31.4988 43.3754 31.4754C43.6506 31.4581 44.1528 31.7411 44.4952 32.1143C44.7594 32.4021 49.2433 40.7071 48.2821 44.1794C48.1645 44.6034 48.4836 45.0241 48.9249 45.0241C49.217 45.0241 49.4852 44.8305 49.5668 44.5353Z" fill="#5850EC"/>
<path d="M14.4194 23.3917C15.3056 23.3765 16.0138 22.7741 16.0012 22.046C15.9888 21.3181 15.2603 20.7404 14.3741 20.7556C13.4879 20.7708 12.7797 21.3733 12.7922 22.1013C12.8047 22.8292 13.5332 23.4069 14.4194 23.3917ZM52.0303 20.2263L51.9916 17.992C51.9851 17.623 51.6548 17.3114 51.3133 17.3366C50.9452 17.3435 50.6518 17.6465 50.6583 18.0145L50.6969 20.2489C50.7049 20.6938 51.0421 20.9094 51.3754 20.9031C51.7087 20.8968 52.0381 20.6687 52.0303 20.2263ZM51.4513 21.5197C51.0066 21.5197 50.7799 21.8716 50.7844 22.2167C50.7887 22.5489 51.0071 22.8748 51.4513 22.8748C51.8193 22.8748 52.1179 22.5545 52.1179 22.1864C52.1179 21.8184 51.8193 21.5197 51.4513 21.5197ZM24.1266 30.3479C24.3948 30.6007 24.8167 30.5873 25.0689 30.3201C25.3215 30.0519 25.3089 29.63 25.0407 29.3774C23.8953 28.2984 23.1587 26.5623 22.7894 24.0701C22.0941 19.3791 25.8723 14.9182 31.2126 14.1256C36.2435 13.3789 40.7312 17.4529 41.1722 22.5067C41.3245 24.2515 41.2056 26.6673 39.7746 28.2619C39.5285 28.5362 39.5515 28.9572 39.8254 29.2038C40.1006 29.4486 40.5216 29.426 40.7668 29.1526C42.5173 27.202 42.6757 24.3982 42.5003 22.3904C41.9939 16.5838 36.8302 11.9507 31.0164 12.8062C24.9495 13.7072 20.6674 18.8479 21.4708 24.2663C21.8857 27.0658 22.7542 29.0553 24.1266 30.3479Z" fill="#5850EC"/>
<path d="M31.5373 16.3696C27.6048 16.7117 24.2075 19.9342 24.8446 23.8947C25.1206 25.6109 25.6975 26.9364 26.6072 27.9486C26.8538 28.222 27.2755 28.2441 27.5486 27.998C27.8225 27.7515 27.8446 27.3305 27.5985 27.0562C26.8654 26.2411 26.3954 25.1378 26.161 23.6829C25.6502 20.5084 28.4872 17.9737 31.6532 17.6977C34.8462 17.4187 37.5438 19.406 37.8199 22.5727C37.9778 24.3835 37.6888 25.5197 36.8832 26.2567C36.6115 26.505 36.5924 26.9269 36.8407 27.1986C37.0894 27.4711 37.5117 27.4911 37.7825 27.2411C39.2626 25.8878 39.2708 23.8626 39.148 22.4564C38.8092 18.5698 35.4847 16.0278 31.5373 16.3696Z" fill="#5850EC"/>
<path d="M31.5872 19.36C29.3867 19.5518 27.7522 21.4989 27.944 23.6994C28.02 24.5701 28.365 25.3704 28.9414 26.0119C29.1887 26.2868 29.6101 26.308 29.8828 26.0623C30.1571 25.8166 30.1797 25.3947 29.9336 25.1213C29.5517 24.6959 29.3229 24.1638 29.2721 23.5831C29.1445 22.1152 30.2348 20.8166 31.7036 20.6881C33.1076 20.5753 34.3529 21.6343 34.612 23.1716C34.6918 23.6421 34.5482 24.1274 34.1471 24.7437C33.9466 25.0527 34.0343 25.4659 34.3429 25.6664C34.6502 25.8661 35.0634 25.7801 35.2652 25.4711C35.6359 24.9008 36.1076 24.0189 35.9271 22.9494C35.5512 20.7194 33.694 19.1881 31.5872 19.36Z" fill="#5850EC"/>
</svg>
