<svg width="93" height="93" viewBox="0 0 93 93" fill="none" xmlns="http://www.w3.org/2000/svg">
<g clip-path="url(#clip0_130_4058)">
<path fill-rule="evenodd" clip-rule="evenodd" d="M24.4359 46.2857C24.436 45.5678 24.7212 44.8794 25.2288 44.3718C25.7364 43.8642 26.4248 43.579 27.1427 43.5789L43.5786 43.5789L43.5786 27.143C43.5723 26.7836 43.6377 26.4265 43.7709 26.0926C43.9042 25.7588 44.1025 25.4548 44.3545 25.1984C44.6065 24.942 44.907 24.7384 45.2385 24.5993C45.57 24.4603 45.9259 24.3888 46.2853 24.3888C46.6448 24.3888 47.0007 24.4603 47.3322 24.5993C47.6637 24.7384 47.9642 24.942 48.2162 25.1984C48.4681 25.4548 48.6665 25.7588 48.7997 26.0926C48.933 26.4265 48.9984 26.7836 48.9921 27.143V43.5789L65.428 43.5789C66.1377 43.5912 66.8142 43.8818 67.3118 44.3881C67.8093 44.8944 68.0881 45.5758 68.0881 46.2857C68.0881 46.9955 67.8093 47.6769 67.3118 48.1832C66.8142 48.6895 66.1377 48.9801 65.428 48.9924L48.9921 48.9924L48.9921 65.4283C48.9798 66.1381 48.6892 66.8146 48.1829 67.3121C47.6766 67.8097 46.9952 68.0885 46.2853 68.0885C45.5755 68.0885 44.894 67.8097 44.3878 67.3121C43.8815 66.8146 43.5909 66.1381 43.5786 65.4283L43.5786 48.9924L27.1427 48.9924C26.4248 48.9923 25.7364 48.7071 25.2288 48.1995C24.7212 47.6919 24.436 47.0035 24.4359 46.2857Z" fill="#9CA3AF"/>
</g>
<defs>
<clipPath id="clip0_130_4058">
<rect width="54.1436" height="54.1436" fill="white" transform="translate(8 46.2854) rotate(-45)"/>
</clipPath>
</defs>
</svg>
