<svg xmlns="http://www.w3.org/2000/svg" fill-rule="evenodd" clip-rule="evenodd" image-rendering="optimizeQuality" shape-rendering="geometricPrecision" text-rendering="geometricPrecision" viewBox="0 0 213.33 213.33" className="inline w-4 h-4">
    <path d="M141.34 1.39c0 32.16 26.31 58.48 58.48 58.48-32.16 0-58.48 26.31-58.48 58.48 0-32.16-26.31-58.48-58.47-58.48 32.16 0 58.47-26.31 58.47-58.48zm24.59 120.21c0 24.85 20.33 45.17 45.17 45.17-24.84 0-45.17 20.33-45.17 45.17 0-24.85-20.33-45.17-45.17-45.17 24.84 0 45.17-20.33 45.17-45.17zM51.83 75.01c0 27.28 22.32 49.61 49.61 49.61-27.28 0-49.61 22.32-49.61 49.61 0-27.28-22.32-49.61-49.61-49.61 27.28 0 49.61-22.32 49.61-49.61z" fill="currentColor"></path>
</svg>