<svg id="SvgjsSvg1001" width="256" height="256"
    xmlns="http://www.w3.org/2000/svg" version="1.1"
    xmlns:xlink="http://www.w3.org/1999/xlink"
    xmlns:svgjs="http://svgjs.com/svgjs">
    <defs id="SvgjsDefs1002"></defs>
    <g id="SvgjsG1008">
        <svg xmlns="http://www.w3.org/2000/svg" fill="white" viewBox="0 0 24 24">
            <path stroke="currentColor" stroke-linejoin="round" stroke-width="1.5" d="M12 7C13.1046 7 14 6.10457 14 5C14 3.89543 13.1046 3 12 3C10.8954 3 10 3.89543 10 5C10 6.10457 10.8954 7 12 7ZM12 7V11M18 16C18 17.1046 17.1046 18 16 18C14.8954 18 14 17.1046 14 16C14 14.8954 14.8954 14 16 14C17.1046 14 18 14.8954 18 16ZM10 16C10 17.1046 9.10457 18 8 18C6.89543 18 6 17.1046 6 16C6 14.8954 6.89543 14 8 14C9.10457 14 10 14.8954 10 16ZM5 21H19C20.1046 21 21 20.1046 21 19V13C21 11.8954 20.1046 11 19 11H5C3.89543 11 3 11.8954 3 13V19C3 20.1046 3.89543 21 5 21Z" class=""></path>
        </svg>
    </g>
</svg>