<svg width="724" height="724" viewBox="0 0 724 724" fill="none" xmlns="http://www.w3.org/2000/svg">
<path d="M114.494 525.753C112.369 524.48 110.531 522.78 109.095 520.76C108.425 519.814 107.792 518.789 107.4 517.688L107.49 517.75C107.791 517.821 109.866 518.282 111.109 517.096C112.119 516.132 112.156 514.483 112.186 513.165C112.196 512.7 112.171 512.311 112.144 512.035C111.638 512.68 111.023 513.231 110.326 513.663C109.64 514.085 109.286 514.133 108.838 514.419C108.259 514.789 107.594 515.514 107.211 517.071C106.922 515.94 106.992 514.778 107.132 513.626C107.272 512.483 107.48 511.332 107.416 510.175C107.367 509.291 107.128 508.471 106.678 507.735C107.231 507.85 109.042 508.127 110.168 507.053C111.178 506.089 111.216 504.44 111.245 503.121C111.256 502.657 111.23 502.268 111.204 501.991C110.698 502.636 110.082 503.187 109.386 503.619C108.7 504.041 108.345 504.089 107.897 504.376C107.306 504.754 106.624 505.502 106.246 507.13C105.449 506.151 104.434 505.314 103.445 504.541C102.958 504.161 102.45 503.811 101.94 503.464C102.647 503.583 104.215 503.711 105.228 502.744C106.239 501.78 106.276 500.131 106.306 498.813C106.314 498.435 106.3 498.058 106.264 497.683C105.758 498.328 105.143 498.879 104.446 499.311C103.761 499.733 103.406 499.781 102.958 500.067C102.345 500.46 101.635 501.249 101.266 503.004C101.004 502.824 100.744 502.641 100.489 502.452C99.377 501.627 98.4444 500.602 98.2141 499.198L98.3999 499.327C98.7008 499.398 100.776 499.859 102.019 498.673C103.029 497.709 103.067 496.06 103.096 494.741C103.105 494.364 103.091 493.987 103.054 493.612C102.548 494.257 101.933 494.808 101.236 495.24C100.551 495.662 100.196 495.71 99.7481 495.996C99.1838 496.357 98.5379 497.055 98.1509 498.531C98.1217 497.534 98.3622 496.537 98.6589 495.577L99.0108 495.477C99.2661 495.282 101.005 493.917 100.871 492.136C100.762 490.689 99.4604 489.572 98.42 488.678C98.1225 488.423 97.81 488.185 97.4842 487.967C97.6154 488.567 97.7374 489.455 97.5946 490.502C97.4821 491.331 97.2868 491.648 97.2215 492.197C97.1323 492.95 97.3001 494.044 98.4752 495.503C98.1844 496.448 97.9503 497.419 97.9535 498.408C97.9561 499.416 98.2555 500.352 98.8378 501.149C98.2539 500.729 97.1249 500.091 95.9768 500.414C94.7321 500.764 93.9847 502.097 93.3881 503.162C93.2174 503.467 93.065 503.781 92.9316 504.104C93.6256 503.796 94.3684 503.613 95.1259 503.562C95.8696 503.515 96.1806 503.63 96.6716 503.59C97.3606 503.534 98.3144 503.18 99.4131 501.823L99.394 501.786C100.141 502.524 101.05 503.083 101.915 503.67C102.56 504.108 103.185 504.576 103.788 505.07L103.736 505.041C103.452 505.003 101.497 504.768 100.46 505.975C99.6175 506.955 99.7337 508.479 99.8272 509.696C99.8601 510.126 99.919 510.482 99.9689 510.734C100.376 510.093 100.893 509.529 101.495 509.068C102.089 508.616 102.411 508.539 102.798 508.235C103.333 507.813 103.921 507.009 104.094 505.325C104.469 505.641 104.834 505.969 105.19 506.306C105.554 506.653 105.895 507.013 106.189 507.4L106.179 507.449L106.273 507.514C106.708 508.113 107.029 508.778 107.154 509.556C107.277 510.332 107.238 511.12 107.153 511.902L106.879 511.72C106.598 511.66 104.667 511.274 103.541 512.396C102.624 513.309 102.622 514.836 102.62 516.058C102.62 516.488 102.651 516.847 102.681 517.103C103.137 516.496 103.696 515.973 104.333 515.56C104.959 515.156 105.286 515.105 105.696 514.83C106.173 514.51 106.711 513.921 107.049 512.741L107.002 513.099C106.853 514.24 106.709 515.404 106.897 516.549C106.949 516.865 107.026 517.175 107.122 517.478L107.12 517.492L107.129 517.498C107.439 518.467 107.947 519.374 108.495 520.223C110.001 522.548 112.02 524.498 114.395 525.924C114.503 525.99 114.604 525.819 114.494 525.753ZM126.381 526.317C128.538 525.098 130.42 523.447 131.907 521.465C132.601 520.537 133.261 519.528 133.681 518.438L133.59 518.497C133.288 518.56 131.201 518.967 129.989 517.75C129.005 516.76 129.01 515.11 129.015 513.791C129.016 513.326 129.052 512.938 129.086 512.663C129.44 513.135 130.01 513.782 130.861 514.338C131.535 514.777 131.889 514.834 132.329 515.132C132.898 515.517 133.544 516.259 133.886 517.826C134.205 516.702 134.165 515.538 134.055 514.384C133.945 513.237 133.767 512.081 133.861 510.927C133.933 510.045 134.193 509.232 134.662 508.507C134.106 508.607 132.289 508.838 131.191 507.734C130.206 506.744 130.211 505.095 130.216 503.776C130.218 503.312 130.253 502.923 130.287 502.648C130.641 503.12 131.211 503.767 132.063 504.323C132.737 504.762 133.09 504.82 133.531 505.117C134.113 505.511 134.774 506.276 135.11 507.914C135.933 506.956 136.969 506.145 137.977 505.399C138.474 505.031 138.991 504.695 139.51 504.36C138.801 504.461 137.23 504.549 136.242 503.556C135.256 502.566 135.262 500.916 135.267 499.598C135.268 499.133 135.304 498.745 135.338 498.469C135.692 498.942 136.261 499.589 137.113 500.144C137.787 500.583 138.141 500.641 138.581 500.938C139.184 501.346 139.873 502.153 140.197 503.918C140.462 503.744 140.727 503.568 140.987 503.385C142.12 502.59 143.079 501.589 143.345 500.191L143.156 500.315C142.854 500.378 140.767 500.786 139.555 499.568C138.571 498.577 138.576 496.928 138.58 495.609C138.582 495.144 138.617 494.756 138.651 494.481C139.005 494.953 139.575 495.6 140.427 496.155C141.101 496.594 141.455 496.652 141.895 496.95C142.45 497.325 143.077 498.039 143.426 499.526C143.481 498.53 143.266 497.527 142.994 496.559L142.646 496.451C142.395 496.249 140.692 494.839 140.873 493.063C141.019 491.618 142.349 490.535 143.413 489.669C143.717 489.421 144.035 489.192 144.366 488.982C144.16 489.809 144.1 490.666 144.19 491.514C144.282 492.345 144.468 492.667 144.519 493.218C144.589 493.973 144.393 495.063 143.181 496.49C143.447 497.443 143.656 498.419 143.627 499.408C143.598 500.416 143.275 501.344 142.672 502.125C143.267 501.721 144.412 501.113 145.551 501.465C146.786 501.847 147.498 503.199 148.067 504.279C148.268 504.66 148.407 504.993 148.499 505.233C148.005 505.001 147.257 504.718 146.32 504.634C145.578 504.568 145.263 504.675 144.774 504.622C144.086 504.548 143.142 504.171 142.079 502.785L142.099 502.747C141.333 503.467 140.41 504.002 139.53 504.566C138.874 504.988 138.237 505.439 137.622 505.917L137.674 505.89C137.959 505.859 139.919 505.675 140.925 506.908C141.742 507.91 141.586 509.43 141.461 510.645C141.426 510.993 141.369 511.338 141.293 511.678C140.902 511.027 140.4 510.45 139.81 509.972C139.228 509.506 138.908 509.421 138.529 509.106C138.006 508.671 137.439 507.852 137.309 506.164C136.926 506.47 136.553 506.788 136.189 507.117C135.815 507.454 135.466 507.805 135.161 508.184L135.17 508.233L135.074 508.296C134.624 508.883 134.285 509.539 134.14 510.314C133.996 511.087 134.015 511.875 134.081 512.659L134.359 512.485C134.641 512.432 136.581 512.096 137.679 513.247C138.571 514.183 138.534 515.71 138.504 516.931C138.494 517.362 138.453 517.72 138.417 517.975C138.098 517.53 137.583 516.92 136.806 516.389C136.19 515.969 135.864 515.909 135.462 515.625C134.993 515.293 134.471 514.69 134.163 513.501L134.201 513.861C134.321 515.005 134.434 516.173 134.217 517.312C134.156 517.625 134.073 517.934 133.968 518.235L133.971 518.249L133.962 518.255C133.627 519.215 133.095 520.11 132.526 520.943C130.96 523.229 128.892 525.126 126.48 526.489C126.366 526.552 126.269 526.38 126.381 526.317ZM121.485 525.655C120.154 523.565 119.271 521.222 118.891 518.774C118.715 517.628 118.608 516.427 118.75 515.268L118.802 515.363C119.039 515.561 120.689 516.902 122.331 516.398C123.666 515.988 124.437 514.53 125.054 513.364C125.271 512.953 125.423 512.594 125.522 512.335C124.781 512.686 123.984 512.903 123.168 512.977C122.366 513.048 122.028 512.932 121.498 512.988C120.815 513.06 119.896 513.41 118.857 514.631C119.104 513.49 119.687 512.482 120.328 511.515C120.964 510.555 121.665 509.619 122.126 508.556C122.477 507.744 122.631 506.903 122.558 506.043C123.001 506.393 124.496 507.452 125.984 506.995C127.318 506.584 128.09 505.126 128.707 503.961C128.924 503.55 129.076 503.191 129.175 502.932C128.434 503.282 127.637 503.5 126.821 503.574C126.019 503.645 125.68 503.529 125.152 503.584C124.453 503.658 123.509 504.022 122.442 505.308C122.167 504.076 121.634 502.874 121.095 501.74C120.83 501.182 120.532 500.642 120.232 500.103C120.81 500.525 122.155 501.342 123.495 500.93C124.83 500.521 125.601 499.063 126.217 497.896C126.435 497.486 126.586 497.126 126.686 496.868C125.945 497.218 125.148 497.436 124.331 497.51C123.53 497.581 123.191 497.464 122.662 497.52C121.938 497.597 120.95 497.985 119.834 499.389C119.681 499.111 119.531 498.83 119.387 498.547C118.762 497.313 118.387 495.978 118.809 494.619L118.917 494.818C119.154 495.016 120.804 496.358 122.446 495.853C123.781 495.443 124.552 493.985 125.169 492.819C125.386 492.409 125.538 492.049 125.637 491.79C124.896 492.141 124.099 492.358 123.283 492.432C122.481 492.503 122.143 492.387 121.614 492.443C120.947 492.513 120.057 492.848 119.05 493.995C119.471 493.091 120.132 492.307 120.827 491.581L121.186 491.649C121.502 491.589 123.668 491.146 124.344 489.493C124.895 488.15 124.231 486.569 123.7 485.304C123.548 484.943 123.375 484.591 123.181 484.249C122.975 485.076 122.624 485.861 122.146 486.566C121.674 487.257 121.358 487.453 121.054 487.915C120.637 488.549 120.297 489.602 120.695 491.432C120.012 492.147 119.369 492.911 118.929 493.797C118.48 494.699 118.328 495.671 118.493 496.644C118.159 496.008 117.434 494.932 116.263 494.707C114.993 494.462 113.729 495.32 112.718 496.006C112.362 496.247 112.082 496.476 111.888 496.644C112.433 496.671 113.226 496.774 114.093 497.141C114.779 497.432 115.006 497.674 115.463 497.858C116.104 498.116 117.115 498.227 118.705 497.505L118.704 497.462C119.041 498.458 119.604 499.364 120.115 500.276C120.496 500.957 120.846 501.654 121.164 502.366L121.13 502.317C120.894 502.156 119.251 501.071 117.783 501.686C116.591 502.186 116.013 503.6 115.551 504.731C115.388 505.13 115.282 505.474 115.213 505.722C115.864 505.331 116.579 505.058 117.325 504.915C118.057 504.777 118.38 504.852 118.862 504.753C119.529 504.615 120.414 504.159 121.323 502.73C121.516 503.181 121.697 503.637 121.864 504.099C122.034 504.572 122.178 505.046 122.268 505.523L122.237 505.563L122.292 505.664C122.413 506.394 122.404 507.132 122.167 507.884C121.93 508.634 121.542 509.32 121.116 509.982L120.953 509.696C120.729 509.518 119.175 508.308 117.665 508.807C116.437 509.213 115.751 510.578 115.203 511.669C115.046 511.982 114.908 512.303 114.79 512.632C115.469 512.293 116.203 512.076 116.957 511.991C117.698 511.909 118.014 512.01 118.503 511.949C119.073 511.876 119.818 511.59 120.649 510.686C120.581 510.786 120.513 510.885 120.446 510.985C119.802 511.938 119.152 512.915 118.808 514.023C118.714 514.328 118.642 514.639 118.593 514.955L118.585 514.966L118.59 514.975C118.434 515.98 118.482 517.02 118.592 518.024C118.899 520.777 119.831 523.424 121.317 525.762C121.387 525.87 121.553 525.763 121.485 525.655Z" fill="#7D65E0"/>
<path d="M116.575 526.454C114.694 524.123 113.295 521.413 112.509 518.521C112.141 517.165 111.847 515.734 111.861 514.318L111.937 514.425C112.249 514.632 114.42 516.021 116.328 515.189C117.88 514.513 118.61 512.651 119.193 511.163C119.359 510.737 119.501 510.302 119.616 509.859C118.771 510.383 117.841 510.754 116.868 510.955C115.912 511.149 115.488 511.056 114.859 511.196C114.045 511.375 112.986 511.924 111.902 513.536C112.044 512.128 112.608 510.835 113.248 509.582C113.882 508.338 114.599 507.115 115.008 505.772C115.321 504.746 115.39 503.712 115.186 502.686C115.767 503.047 117.713 504.118 119.443 503.364C120.994 502.688 121.723 500.826 122.307 499.338C122.512 498.813 122.645 498.359 122.73 498.034C121.886 498.558 120.955 498.929 119.982 499.13C119.026 499.324 118.603 499.231 117.973 499.371C117.142 499.555 116.055 500.122 114.945 501.818C114.445 500.372 113.639 498.996 112.836 497.704C112.44 497.068 112.007 496.458 111.571 495.851C112.326 496.28 114.057 497.08 115.614 496.401C117.165 495.725 117.895 493.863 118.479 492.375C118.684 491.85 118.817 491.396 118.902 491.071C118.057 491.595 117.127 491.966 116.154 492.167C115.199 492.361 114.775 492.269 114.145 492.408C113.284 492.599 112.147 493.201 110.996 495.046C110.773 494.732 110.555 494.414 110.342 494.093C109.42 492.692 108.786 491.135 109.109 489.442L109.267 489.666C109.579 489.872 111.75 491.261 113.658 490.429C115.21 489.753 115.94 487.891 116.523 486.403C116.69 485.977 116.831 485.542 116.946 485.099C116.102 485.623 115.171 485.994 114.198 486.195C113.242 486.39 112.819 486.297 112.189 486.436C111.397 486.612 110.371 487.136 109.314 488.657C109.697 487.509 110.386 486.475 111.124 485.505L111.566 485.538C111.938 485.422 114.486 484.593 115.076 482.51C115.554 480.817 114.539 479.003 113.726 477.553C113.494 477.138 113.237 476.737 112.957 476.353C112.821 477.377 112.506 478.369 112.027 479.285C111.553 480.181 111.199 480.461 110.896 481.059C110.481 481.879 110.216 483.194 110.946 485.344C110.221 486.299 109.55 487.306 109.141 488.434C108.724 489.582 108.674 490.773 109.006 491.923C108.516 491.202 107.496 490.006 106.055 489.894C104.492 489.774 103.087 490.979 101.962 491.944C101.567 492.283 101.261 492.597 101.05 492.826C101.711 492.785 102.68 492.799 103.774 493.123C104.64 493.379 104.947 493.64 105.522 493.799C106.329 494.023 107.562 494.018 109.379 492.931L109.372 492.88C109.914 494.032 110.717 495.047 111.456 496.076C112.008 496.843 112.525 497.636 113.005 498.45L112.958 498.395C112.651 498.233 110.524 497.151 108.841 498.092C107.473 498.857 106.97 500.64 106.569 502.065C106.427 502.568 106.346 502.997 106.298 503.305C107.029 502.746 107.852 502.319 108.731 502.044C109.594 501.778 109.993 501.825 110.56 501.639C111.344 501.381 112.348 500.711 113.248 498.866C113.542 499.383 113.822 499.908 114.086 500.44C114.356 500.987 114.593 501.539 114.767 502.101L114.735 502.152L114.815 502.266C115.061 503.13 115.151 504.019 114.967 504.957C114.785 505.893 114.411 506.773 113.989 507.628L113.752 507.306C113.459 507.121 111.422 505.878 109.671 506.685C108.248 507.341 107.609 509.08 107.097 510.469C106.951 510.866 106.829 511.272 106.731 511.684C107.503 511.183 108.356 510.821 109.253 510.615C110.135 510.416 110.529 510.494 111.109 510.353C111.786 510.188 112.644 509.741 113.52 508.539L113.317 508.927C112.672 510.163 112.023 511.428 111.76 512.81C111.689 513.19 111.645 513.575 111.63 513.961L111.621 513.976L111.628 513.986C111.577 515.218 111.778 516.464 112.048 517.657C112.794 520.932 114.279 523.992 116.389 526.605C116.485 526.727 116.672 526.575 116.575 526.454Z" fill="#9D8DE0"/>
<path d="M122.072 523.96C124.27 521.926 126.045 519.447 127.24 516.698C127.801 515.409 128.298 514.036 128.49 512.632L128.4 512.728C128.061 512.887 125.712 513.948 123.944 512.849C122.507 511.956 122.054 510.007 121.692 508.451C121.589 508.005 121.512 507.554 121.462 507.1C122.222 507.74 123.089 508.241 124.023 508.581C124.941 508.912 125.373 508.881 125.976 509.11C126.754 509.406 127.723 510.101 128.564 511.854C128.626 510.439 128.255 509.078 127.804 507.746C127.355 506.424 126.823 505.11 126.612 503.722C126.451 502.662 126.532 501.63 126.883 500.644C126.255 500.917 124.175 501.695 122.573 500.699C121.135 499.806 120.682 497.858 120.32 496.301C120.217 495.856 120.14 495.404 120.09 494.95C120.85 495.59 121.716 496.091 122.65 496.431C123.568 496.762 124 496.731 124.603 496.96C125.399 497.262 126.393 497.981 127.246 499.819C127.95 498.461 128.945 497.215 129.928 496.054C130.411 495.481 130.928 494.94 131.446 494.402C130.637 494.718 128.809 495.259 127.366 494.362C125.929 493.469 125.476 491.521 125.114 489.964C125.011 489.519 124.934 489.068 124.884 488.613C125.644 489.253 126.511 489.755 127.444 490.095C128.361 490.425 128.795 490.395 129.398 490.624C130.222 490.937 131.26 491.698 132.133 493.689C132.398 493.41 132.661 493.129 132.918 492.841C134.032 491.587 134.885 490.139 134.81 488.416L134.622 488.615C134.282 488.774 131.934 489.835 130.166 488.736C128.728 487.843 128.275 485.895 127.913 484.338C127.81 483.893 127.733 483.441 127.683 482.987C128.443 483.627 129.31 484.129 130.244 484.468C131.161 484.799 131.594 484.768 132.197 484.998C132.956 485.286 133.895 485.953 134.72 487.61C134.507 486.419 133.976 485.296 133.385 484.23L132.943 484.198C132.592 484.03 130.19 482.842 129.908 480.696C129.679 478.951 130.946 477.303 131.96 475.985C132.249 475.608 132.561 475.249 132.894 474.909C132.88 475.943 133.048 476.97 133.391 477.945C133.73 478.9 134.04 479.228 134.253 479.864C134.546 480.735 134.618 482.075 133.585 484.097C134.164 485.146 134.682 486.24 134.924 487.414C135.17 488.611 135.047 489.797 134.553 490.886C135.142 490.245 136.324 489.208 137.766 489.306C139.33 489.412 140.546 490.808 141.519 491.925C141.797 492.244 142.056 492.58 142.294 492.93C141.395 492.736 140.468 492.702 139.556 492.83C138.662 492.958 138.321 493.171 137.729 493.246C136.898 493.351 135.678 493.168 134.038 491.829L134.052 491.78C133.349 492.842 132.409 493.73 131.528 494.641C130.871 495.321 130.245 496.03 129.652 496.766L129.706 496.719C130.033 496.603 132.295 495.84 133.824 497.015C135.067 497.97 135.306 499.806 135.498 501.274C135.565 501.791 135.583 502.228 135.587 502.54C134.945 501.88 134.192 501.339 133.362 500.941C132.547 500.552 132.145 500.541 131.61 500.275C130.872 499.907 129.975 499.099 129.351 497.143C128.985 497.612 128.633 498.091 128.295 498.58C127.948 499.081 127.633 499.593 127.38 500.125L127.404 500.18L127.308 500.281C126.941 501.099 126.723 501.967 126.769 502.921C126.814 503.874 127.057 504.798 127.351 505.705L127.632 505.422C127.949 505.281 130.144 504.345 131.76 505.397C133.074 506.253 133.455 508.065 133.76 509.514C133.867 510.025 133.919 510.459 133.946 510.769C133.255 510.162 132.462 509.68 131.604 509.347C130.761 509.023 130.359 509.044 129.806 508.82C129.159 508.558 128.376 507.992 127.682 506.676L127.827 507.089C128.287 508.406 128.746 509.751 128.806 511.157C128.823 511.544 128.808 511.931 128.769 512.315L128.776 512.331L128.766 512.34C128.639 513.566 128.261 514.77 127.821 515.912C126.61 519.044 124.698 521.858 122.232 524.138C122.12 524.243 121.958 524.066 122.072 523.96Z" fill="#9D8DE0"/>
<path d="M137.5 524.962C137.315 527.339 134.18 567.262 133.89 570.966H106.246C105.909 567.074 102.477 527.505 102.261 524.962H137.5Z" fill="#FF80CD"/>
<path d="M102.26 524.961L102.537 528.162H113.179C122.854 528.162 130.478 536.405 129.721 546.051C128.996 555.291 128.179 565.69 127.765 570.965H133.889C134.18 567.261 137.315 527.339 137.5 524.961L102.26 524.961Z" fill="#FF6BC5"/>
<path d="M136.81 524.963H102.951C100.679 524.963 98.8372 523.47 98.8372 521.626C98.8372 519.783 100.679 518.29 102.951 518.29H136.81C139.082 518.29 140.924 519.783 140.924 521.626C140.924 523.469 139.082 524.963 136.81 524.963Z" fill="#FF80CD"/>
<path d="M170.022 380.017V264.33H88.6204V380.017H85.5901V387.716H173.396V380.017H170.022ZM130.717 267.361H166.872V303.747H130.717V267.361ZM91.7696 267.361H127.924V303.747H91.7696V267.361ZM127.978 380.017H91.8295V306.612H127.978V380.017ZM166.932 380.017H130.717V306.612H166.932V380.017ZM611.375 380.017V264.33H529.974V380.017H526.943V387.716H614.749V380.017H611.375ZM572.071 267.361H608.226V303.747H572.071V267.361ZM533.123 267.361H569.278V303.747H533.123V267.361ZM569.33 380.017H533.182V306.612H569.33V380.017ZM608.285 380.017H572.07V306.612H608.285V380.017Z" fill="#C4CBFF"/>
<path d="M565.57 526.17C576.38 526.17 585.143 518.95 585.143 510.044C585.143 501.138 576.38 493.918 565.57 493.918C554.76 493.918 545.997 501.138 545.997 510.044C545.997 518.95 554.76 526.17 565.57 526.17Z" fill="#7A9DFF"/>
<path d="M579.368 570.624C570.072 572.632 560.454 572.632 551.158 570.624L545.651 510.083H584.876L579.368 570.624Z" fill="#7A9DFF"/>
<path d="M585.628 514.838H544.899C544.058 514.838 543.252 514.504 542.657 513.909C542.063 513.315 541.729 512.509 541.729 511.668C541.729 510.827 542.063 510.021 542.657 509.426C543.252 508.832 544.058 508.498 544.899 508.498H585.628C586.459 508.513 587.251 508.854 587.833 509.447C588.415 510.04 588.741 510.837 588.741 511.668C588.741 512.499 588.415 513.296 587.833 513.889C587.251 514.482 586.459 514.823 585.628 514.838Z" fill="#5C80E6"/>
<path d="M565.59 502.634C571.148 502.634 575.654 500.683 575.654 498.276C575.654 495.869 571.148 493.918 565.59 493.918C560.032 493.918 555.526 495.869 555.526 498.276C555.526 500.683 560.032 502.634 565.59 502.634Z" fill="#5C80E6"/>
<path d="M499.439 246.073C497.883 246.74 495.981 246.815 495.981 246.815C495.981 246.815 491.301 247.623 487.066 247.093C485.57 246.895 483.277 246.613 480.785 245.263L480.013 244.809C479.762 244.656 479.521 244.487 479.293 244.301C479.116 244.169 478.939 244.038 478.772 243.897C478.678 243.831 478.589 243.76 478.505 243.683C475.638 241.308 474.325 238.375 473.858 237.235C473.432 236.131 472.006 232.125 473.201 227.434C473.945 224.532 475.803 220.775 477.685 220.995C478.044 221.057 478.361 221.237 478.814 221.11C479.723 220.891 480.001 219.816 480.508 218.427C481.439 215.853 481.886 214.56 482.723 214.063C483.102 213.822 484.119 213.634 486.128 213.251C487.522 212.983 487.61 213.023 487.842 212.847C488.964 211.94 487.667 210.031 488.355 207.732C488.896 205.973 490.489 204.334 492.301 204.104C493.37 203.986 493.688 204.442 495.722 204.458C497.16 204.465 497.901 204.454 498.557 204.15C501.109 202.964 499.706 198.4 501.896 197.609C502.979 197.22 504.47 197.914 505.896 198.576C507.343 199.272 507.569 199.746 508.185 199.961C511.696 201.229 516.747 189.913 518.326 190.647C519.525 191.211 519.456 199.319 517.334 204.291C516.99 205.055 516.282 206.531 516.8 208.243C517.381 210.223 518.999 210.53 519.109 211.918C519.147 212.618 518.779 213.037 515.18 216.685C514.026 217.843 513.221 218.643 513.495 219.388C513.756 220.118 514.861 220.237 515.209 221.283C515.279 221.445 515.369 221.815 515.222 222.426C514.777 224.459 512.462 226.307 511.308 227.188C509.007 228.961 507.688 229.663 507.904 230.29C508.143 230.903 509.537 230.645 510.212 231.667C510.673 232.4 510.488 233.367 510.237 233.952C509.875 234.778 509.135 235.119 506.845 235.908C504.496 236.721 504.106 236.766 502.879 237.246C500.751 238.037 498.819 238.764 498.907 239.707C498.987 240.558 500.587 240.71 501.209 242.234C501.238 242.298 501.693 243.467 501.234 244.52C500.931 245.219 500.221 245.74 499.439 246.073Z" fill="#CFD3FF"/>
<path d="M495.095 241.94C493.95 242.901 492.356 242.155 491.103 241.847C489.912 241.555 488.698 241.361 487.474 241.269C485.143 241.094 482.795 241.305 480.524 241.857L480.542 241.835C482.249 239.721 483.786 237.452 485.336 235.25C486.935 232.98 488.585 230.729 490.496 228.705C492.093 227.018 493.894 225.617 495.758 224.279L495.762 224.277C498.342 224.352 500.714 225.435 503.254 225.73C505.478 225.988 508.072 225.337 509.03 223.093C509.115 222.894 508.795 222.787 508.71 222.986C507.698 225.358 504.814 225.69 502.58 225.29C500.432 224.906 498.382 224.117 496.196 223.968L496.206 223.961L496.869 223.49C498.681 222.214 500.482 220.895 501.912 219.192C502.91 218.019 503.799 216.761 504.641 215.481C507.06 215.411 509.54 214.633 511.467 213.148C511.639 213.016 511.417 212.762 511.246 212.894C509.45 214.277 507.134 215.025 504.875 215.131C504.92 215.065 504.958 214.998 505.004 214.932C507.014 211.846 508.861 208.657 510.537 205.378C510.681 205.092 510.83 204.801 510.97 204.51C511.064 204.32 510.785 204.134 510.691 204.324C509.164 207.444 507.422 210.473 505.577 213.414C504.596 214.976 503.578 216.516 502.454 217.987C502.199 218.32 501.932 218.642 501.652 218.954L501.651 218.956C500.895 217.934 501.16 216.619 501.317 215.452C501.459 214.425 501.45 213.383 501.29 212.359C500.964 210.323 500.054 208.426 498.671 206.898C498.525 206.738 498.271 206.959 498.417 207.12C499.882 208.74 500.797 210.783 501.029 212.955C501.149 214.072 501.006 215.136 500.868 216.241C500.739 217.275 500.759 218.349 501.417 219.21C501.419 219.213 501.423 219.212 501.426 219.215L501.424 219.217C500.545 220.198 499.582 221.074 498.513 221.889C496.335 223.546 493.988 224.966 491.951 226.804C489.97 228.594 488.265 230.67 486.68 232.812C486.543 232.994 486.411 233.181 486.278 233.367C486.278 233.367 486.278 233.368 486.277 233.369C485.314 230.652 484.325 227.784 484.801 224.862C484.911 224.186 485.108 223.527 485.389 222.903C485.662 222.298 486.007 221.72 486.172 221.072C486.479 219.862 486.002 218.697 485.517 217.606C485.429 217.407 485.126 217.554 485.214 217.752C485.491 218.376 485.772 219.011 485.888 219.688C486.007 220.384 485.881 221.029 485.603 221.672C485.33 222.304 484.99 222.896 484.774 223.552C484.582 224.144 484.455 224.755 484.394 225.374C484.103 228.206 485.063 230.946 485.995 233.574C486.011 233.618 486.04 233.639 486.071 233.654C486.071 233.655 486.069 233.656 486.068 233.658C484.057 236.439 482.172 239.344 479.989 241.989L479.968 242.013C479.944 242.034 479.922 242.052 479.913 242.08C479.462 242.63 478.993 243.165 478.506 243.684C478.592 243.761 478.678 243.829 478.773 243.898C479.26 243.372 479.732 242.832 480.188 242.279L480.191 242.275C482.736 241.605 485.381 241.394 488 241.654C489.334 241.787 490.643 242.053 491.932 242.418C493.058 242.737 494.335 243.02 495.318 242.195C495.483 242.055 495.262 241.801 495.095 241.94Z" fill="white"/>
<path d="M497.982 193.358C497.67 191.952 495.211 191.299 492.488 191.901C490.217 192.403 488.485 193.621 488.152 194.826C488.059 194.823 487.967 194.819 487.874 194.814C485.507 194.685 483.034 194.388 480.845 193.436L480.839 193.434C480.992 193.177 481.146 192.921 481.294 192.66C482.336 190.822 483.219 188.913 484.026 186.971C485.109 187.442 486.341 187.313 487.488 187.216C488.804 187.105 490.113 186.915 491.406 186.646C492.402 186.439 493.389 186.187 494.363 185.891C494.38 185.927 494.398 185.963 494.419 185.997C495.15 187.239 497.69 187.099 500.093 185.685C502.496 184.27 503.852 182.118 503.122 180.876C502.391 179.635 499.85 179.775 497.448 181.189C495.564 182.297 494.324 183.86 494.228 185.081C493.325 185.36 492.41 185.6 491.486 185.797C490.317 186.047 489.135 186.232 487.947 186.353C486.783 186.471 485.444 186.689 484.336 186.213C485.314 183.799 486.193 181.342 487.13 178.91C487.164 178.918 487.198 178.923 487.233 178.923C489.537 178.924 491.742 178.358 493.783 177.292C494.123 177.113 494.458 176.924 494.788 176.725C495.871 177.334 497.929 177.031 499.896 175.874C502.299 174.459 503.655 172.307 502.925 171.065C502.194 169.824 499.654 169.963 497.251 171.378C494.901 172.76 493.554 174.849 494.177 176.101C492.132 177.276 489.928 178.089 487.442 178.11C487.956 176.799 488.491 175.497 489.074 174.216C490.001 172.183 491.052 170.199 492.297 168.35C493.526 168.699 495.475 167.631 496.961 165.698C498.661 163.488 499.113 160.984 497.971 160.106C496.83 159.228 494.526 160.308 492.826 162.518C491.233 164.589 490.735 166.919 491.619 167.926C489.657 170.852 488.173 174.086 486.856 177.383C486.307 176.411 486.004 175.318 485.671 174.258C485.287 173.036 484.91 171.81 484.592 170.569C484.383 169.753 484.204 168.929 484.058 168.1C484.943 167.257 485.401 165.344 485.121 163.201C484.761 160.436 483.31 158.346 481.882 158.533C480.453 158.719 479.588 161.112 479.948 163.877C480.309 166.641 481.76 168.732 483.188 168.545C483.23 168.54 483.268 168.526 483.309 168.517C483.455 169.305 483.629 170.088 483.831 170.865C484.154 172.11 484.528 173.34 484.913 174.566C485.312 175.835 485.684 177.114 486.42 178.237C486.439 178.265 486.462 178.292 486.487 178.315C486.192 179.072 485.903 179.831 485.618 180.592C484.972 182.312 484.332 184.036 483.646 185.741C481.463 183.237 479.709 180.389 478.455 177.312C479.336 176.429 479.558 174.335 478.907 172.118C478.121 169.442 476.364 167.602 474.982 168.008C473.6 168.414 473.116 170.912 473.902 173.587C474.671 176.206 476.37 178.019 477.738 177.714C479.033 180.874 480.845 183.796 483.101 186.359C483.162 186.431 483.246 186.479 483.339 186.496C482.885 187.602 482.4 188.695 481.884 189.773C481.314 190.952 480.688 192.102 480.008 193.22C479.986 193.191 479.961 193.164 479.934 193.141C478.076 191.621 476.448 189.841 475.1 187.856C474.738 187.323 474.393 186.779 474.067 186.224C474.678 185.164 474.553 183.183 473.648 181.204C472.488 178.669 470.486 177.099 469.176 177.698C467.866 178.297 467.744 180.839 468.904 183.374C470.063 185.91 472.066 187.48 473.376 186.881C473.412 186.865 473.446 186.846 473.48 186.827C473.749 187.278 474.027 187.719 474.311 188.147C475.723 190.275 477.461 192.171 479.435 193.79C479.482 193.83 479.537 193.858 479.597 193.873C478.575 195.485 477.451 197.029 476.233 198.497C476.001 198.778 475.763 199.053 475.526 199.328C475.505 199.3 475.481 199.274 475.455 199.252C474.403 198.374 473.431 197.406 472.55 196.357C473.005 195.252 472.833 193.427 472 191.605C470.84 189.069 468.838 187.499 467.528 188.098C466.218 188.697 466.096 191.239 467.256 193.774C468.415 196.31 470.417 197.88 471.727 197.281C471.855 197.222 471.972 197.145 472.077 197.051C472.954 198.08 473.918 199.033 474.956 199.899C474.971 199.911 474.985 199.919 475 199.928C472.794 202.415 470.389 204.717 467.931 206.953C467.544 207.304 468.034 207.959 468.423 207.606C470.992 205.269 473.516 202.847 475.811 200.234C476.863 200.749 477.962 201.222 479.092 201.57C479.089 201.63 479.085 201.69 479.09 201.75C479.216 203.185 481.571 204.149 484.349 203.904C487.126 203.659 489.275 202.297 489.149 200.862C489.022 199.427 486.668 198.462 483.89 198.708C481.746 198.897 479.981 199.752 479.344 200.793C478.323 200.479 477.326 200.059 476.365 199.597C477.841 197.866 479.209 196.048 480.42 194.116C480.455 194.148 480.494 194.174 480.538 194.193C482.885 195.213 485.568 195.54 488.108 195.641L488.151 195.642C488.558 196.976 490.961 197.581 493.615 196.995C496.337 196.393 498.293 194.765 497.982 193.358ZM210.688 289.494C212.394 289.364 214.995 288.929 218.902 286.821C221.295 285.519 224.622 283.734 227.738 280.1C227.873 279.943 228.112 279.669 228.401 279.29C228.418 279.273 228.433 279.254 228.447 279.234C228.476 279.203 228.504 279.167 228.536 279.133C228.636 279.008 228.739 278.872 228.859 278.737C231.011 275.896 235.086 269.575 233.328 263.464C233.233 263.111 231.92 258.676 229.484 258.492C226.435 258.292 223.784 264.834 222.493 264.328C221.841 264.069 222.327 262.385 222.193 260.276C221.935 255.534 218.711 249.81 214.522 249.458C212.541 249.272 210.271 250.305 209.023 252.126C206.962 255.062 209.566 259.612 209.166 259.786C208.577 260.012 206.264 250.091 200.578 248.935C198.58 248.538 196 249.191 195.099 250.726C193.782 252.978 196.683 256.201 195.758 257.038C194.776 257.926 191.732 254.214 186.421 253.844C185.072 253.76 181.903 253.545 180.049 255.632C178.425 257.424 178.204 260.34 179.327 262.383C180.374 264.264 182.296 264.92 182.829 265.083C186.272 266.204 188.204 263.86 194.139 263.785C196.209 263.751 198.497 264.002 198.621 264.692C198.679 265.207 197.453 265.498 196.272 266.94C196.244 266.967 196.204 267.009 196.16 267.076C195.805 267.52 194.55 269.109 194.76 270.986C194.758 271.066 195.03 273.097 196.454 273.681C197.184 273.996 197.923 273.782 198.25 273.7C201.488 272.834 205.762 272.742 205.918 273.267C206.113 273.862 200.88 275.21 200.811 277.304C200.756 279.044 204.288 280.314 204.745 280.477C208.554 281.815 212.345 280.653 212.391 280.951C212.419 281.205 209.222 281.358 206.877 283.632C205.779 284.684 204.28 286.744 204.901 288.123C205.646 289.828 209.195 289.596 210.688 289.494Z" fill="#BDC0F5"/>
<path d="M208.603 277.898C208.64 277.157 209.356 276.736 209.996 276.546C210.802 276.306 211.658 276.282 212.491 276.346C214.245 276.48 215.997 277.04 217.765 276.782C218.659 276.652 219.521 276.312 220.174 275.675C217.875 274.132 215.76 272.313 213.687 270.483C212.912 269.798 212.136 269.108 211.352 268.427C208.601 267.99 206.211 270.038 203.491 270.05C202.768 270.053 202.059 269.897 201.428 269.538C201.322 269.477 201.427 269.318 201.532 269.379C202.741 270.068 204.186 269.909 205.473 269.55C206.748 269.195 207.949 268.611 209.246 268.33C209.856 268.198 210.48 268.147 211.1 268.21C208.978 266.375 206.788 264.616 204.346 263.225C201.39 261.542 198.037 260.372 194.6 260.462C194.169 260.475 193.739 260.507 193.314 260.56C193.193 260.571 193.155 260.387 193.275 260.37C196.58 259.976 199.889 260.804 202.859 262.232C203.365 262.475 203.858 262.74 204.344 263.015C204.338 263.005 204.334 262.994 204.333 262.982C204.331 262.971 204.332 262.959 204.336 262.948C204.806 261.329 203.61 259.914 202.529 258.872C201.938 258.302 201.318 257.752 200.827 257.09C200.419 256.54 200.057 255.889 200.131 255.182C200.145 255.061 200.334 255.07 200.321 255.191C200.234 256.018 200.781 256.775 201.294 257.368C201.853 258.012 202.51 258.562 203.102 259.175C204.075 260.182 204.939 261.551 204.516 263.006C204.503 263.053 204.465 263.066 204.428 263.065C207.164 264.625 209.61 266.647 211.976 268.721C213.287 269.87 214.587 271.039 215.918 272.168C217.097 270.461 217.562 268.246 217.228 266.204C217.046 265.088 216.587 264.107 215.972 263.166C215.305 262.144 214.533 261.168 214.116 260.007C213.705 258.862 213.695 257.501 214.495 256.516C214.572 256.422 214.731 256.525 214.654 256.62C213.848 257.612 213.907 258.979 214.358 260.112C214.82 261.274 215.62 262.25 216.282 263.299C216.855 264.206 217.261 265.169 217.425 266.233C217.573 267.224 217.547 268.234 217.348 269.216C217.131 270.314 216.704 271.372 216.065 272.292C217.689 273.663 219.362 274.971 221.168 276.099C222.42 276.882 223.745 277.574 225.122 278.124C224.233 275.183 226.211 272.37 226.475 269.491C226.553 268.649 226.48 267.797 226.158 267.008C226.112 266.896 226.282 266.81 226.328 266.924C227.51 269.822 225.563 272.739 225.163 275.58C225.042 276.438 225.061 277.307 225.322 278.139C225.325 278.149 225.326 278.16 225.325 278.17C225.323 278.181 225.32 278.191 225.314 278.2C226.361 278.606 227.435 278.929 228.535 279.133C228.503 279.167 228.475 279.203 228.446 279.234C228.432 279.254 228.417 279.273 228.4 279.29C226.523 278.932 224.701 278.247 222.988 277.361C222.076 276.884 221.189 276.358 220.333 275.786C219.247 276.876 217.638 277.116 216.165 277.013C214.454 276.892 212.764 276.366 211.038 276.538C210.242 276.617 208.842 276.89 208.792 277.908C208.787 278.03 208.598 278.02 208.603 277.898Z" fill="white"/>
<path d="M216.878 253.386C216.046 252.557 216.284 251.06 217.118 250.236C217.953 249.413 219.186 249.132 220.36 249.058C222.26 248.936 224.014 249.231 225.833 249.62C224.415 248.571 223.032 247.475 221.687 246.333C220.799 245.579 219.926 244.806 219.071 244.014C217.177 245.885 214.768 247.149 212.152 247.645C211.167 247.828 210.019 247.852 209.311 247.143C208.484 246.315 208.723 244.818 209.553 243.994C210.384 243.169 211.611 242.888 212.779 242.812C214.74 242.684 216.546 243.004 218.429 243.413C215.82 240.941 213.383 238.285 211.195 235.437C209.065 236.934 206.488 237.792 203.883 237.858C202.882 237.883 201.745 237.725 201.158 236.912C200.473 235.963 200.945 234.524 201.896 233.841C202.847 233.159 204.103 233.075 205.268 233.185C207.157 233.364 208.835 233.931 210.563 234.601C208.304 231.563 206.24 228.205 205.253 224.538C205.232 224.462 205.215 224.385 205.195 224.308C202.855 225.515 200.15 226.009 197.535 225.699C196.539 225.581 195.437 225.262 194.972 224.374C194.429 223.337 195.103 221.979 196.141 221.44C197.18 220.9 198.434 220.997 199.572 221.272C201.577 221.757 203.27 222.662 205.035 223.67C204.011 219.404 203.768 214.93 202.599 210.706C200.231 211.958 197.479 212.476 194.819 212.161C193.824 212.043 192.721 211.723 192.257 210.835C191.714 209.799 192.387 208.441 193.426 207.901C194.465 207.361 195.719 207.458 196.857 207.733C198.915 208.232 200.646 209.172 202.462 210.213C202.154 209.156 201.771 208.122 201.316 207.119C200.378 205.075 199.012 203.251 197.37 201.686C195.386 203.577 192.806 204.834 190.093 205.223C189.101 205.365 187.953 205.34 187.276 204.603C186.484 203.741 186.785 202.255 187.65 201.466C188.514 200.677 189.752 200.448 190.922 200.421C193.068 200.371 195.005 200.848 197.059 201.395C194.357 198.924 190.964 197.138 187.51 196.209C185.514 197.692 183.098 198.608 180.618 198.804C179.619 198.882 178.476 198.785 177.846 198.005C177.111 197.095 177.506 195.631 178.419 194.899C179.332 194.167 180.581 194.017 181.751 194.064C183.617 194.14 185.299 194.603 187.032 195.167C187.104 195.151 187.18 195.152 187.252 195.17C190.209 195.895 193.004 197.226 195.484 198.987C196.033 199.377 196.567 199.786 197.086 200.215C195.943 198.083 195.386 195.638 195.513 193.221C195.566 192.221 195.813 191.099 196.668 190.578C197.667 189.968 199.066 190.551 199.672 191.552C200.279 192.553 200.264 193.812 200.064 194.965C199.69 197.116 198.825 198.95 197.871 200.895C198.921 201.845 199.881 202.891 200.679 204.059C201.886 205.828 202.704 207.754 203.304 209.76C203.215 207.266 203.836 204.749 205.091 202.591C205.595 201.725 206.326 200.839 207.325 200.766C208.492 200.679 209.471 201.837 209.553 203.004C209.636 204.172 209.049 205.285 208.344 206.22C206.994 208.011 205.334 209.267 203.543 210.602C204.438 213.938 204.805 217.461 205.409 220.825C205.593 221.878 205.821 222.923 206.091 223.957C205.858 221.258 206.47 218.491 207.828 216.146C208.331 215.28 209.061 214.393 210.06 214.318C211.227 214.23 212.207 215.386 212.291 216.553C212.376 217.721 211.79 218.835 211.086 219.771C209.708 221.604 208.005 222.879 206.169 224.25C206.473 225.343 206.845 226.415 207.327 227.46C208.207 229.372 209.303 231.18 210.502 232.907C210.82 233.366 211.148 233.82 211.481 234.269C211.038 231.852 211.272 229.312 212.165 227.022C212.529 226.089 213.116 225.101 214.091 224.874C215.231 224.609 216.376 225.602 216.638 226.743C216.9 227.884 216.491 229.074 215.938 230.106C214.918 232.013 213.537 233.472 212.038 235.004C214.175 237.786 216.579 240.372 219.13 242.78C218.061 240.449 217.678 237.806 218.057 235.27C218.205 234.279 218.558 233.186 219.46 232.748C220.513 232.237 221.849 232.951 222.357 234.006C222.865 235.061 222.731 236.312 222.421 237.441C221.833 239.583 220.77 241.349 219.611 243.23C219.952 243.547 220.295 243.862 220.64 244.172C222.537 245.883 224.519 247.498 226.579 249.01C225.573 246.724 225.219 244.152 225.589 241.681C225.737 240.69 226.09 239.597 226.99 239.159C228.044 238.648 229.38 239.362 229.888 240.417C230.396 241.471 230.261 242.723 229.952 243.852C229.38 245.935 228.359 247.663 227.238 249.486C229.61 251.179 232.092 252.716 234.684 254.04C235.224 254.316 234.759 255.134 234.22 254.859C231.603 253.521 229.1 251.964 226.705 250.254C224.796 252.133 222.37 253.401 219.737 253.893C218.745 254.074 217.591 254.096 216.878 253.386Z" fill="#CFD3FF"/>
<path d="M475.996 185.138H227.429C224.003 185.138 221.226 187.916 221.226 191.343V517.561C221.226 520.987 224.003 523.765 227.429 523.765H475.996C479.422 523.765 482.2 520.987 482.2 517.561V191.342C482.2 187.916 479.422 185.138 475.996 185.138Z" fill="#E3E6FF"/>
<path d="M469.83 198.987H233.595C229.875 198.987 226.86 202.003 226.86 205.724V511.553C226.86 515.273 229.875 518.289 233.595 518.289H469.83C473.55 518.289 476.565 515.273 476.565 511.553V205.724C476.565 202.003 473.55 198.987 469.83 198.987Z" fill="white"/>
<path d="M360.893 149.351C353.095 149.351 346.775 155.672 346.775 163.469V188.214H375.011V163.469C375.011 155.672 368.69 149.351 360.893 149.351ZM360.893 168.783C357.623 168.783 354.972 166.132 354.972 162.862C354.972 159.593 357.623 156.942 360.893 156.942C364.163 156.942 366.813 159.593 366.813 162.862C366.813 166.132 364.162 168.783 360.893 168.783Z" fill="#CFD3FF"/>
<path d="M452.015 190.328H269.77C266.521 190.328 263.887 187.693 263.887 184.444C263.887 181.195 266.521 178.561 269.77 178.561H452.015C455.265 178.561 457.899 181.195 457.899 184.444C457.899 187.693 455.264 190.328 452.015 190.328Z" fill="#CFD3FF"/>
<path d="M435.128 185.335V210.81C435.128 212.036 434.278 213.03 433.23 213.03H372.863C371.97 213.03 371.228 213.766 371.01 214.78C369.869 220.074 365.772 223.994 360.892 223.994C356.013 223.994 351.915 220.074 350.775 214.78C350.557 213.767 349.816 213.03 348.922 213.03H288.555C287.508 213.03 286.658 212.036 286.658 210.81V185.335C286.658 184.109 285.808 183.115 284.76 183.115C283.712 183.115 282.863 184.109 282.863 185.335V214.902C282.863 216.128 283.712 217.121 284.76 217.121H346.329C347.117 217.121 347.817 217.694 348.097 218.555C348.25 219.027 348.422 219.488 348.613 219.937C350.852 225.221 355.509 228.855 360.894 228.855C366.278 228.855 370.936 225.221 373.175 219.937C373.365 219.489 373.536 219.028 373.689 218.556C373.969 217.694 374.669 217.121 375.457 217.121H437.025C438.073 217.121 438.923 216.127 438.923 214.902V185.335C438.923 184.109 438.074 183.115 437.025 183.115C435.977 183.115 435.128 184.109 435.128 185.335Z" fill="#CFD3FF"/>
<path d="M309.589 267.868C310.808 251.529 298.55 237.295 282.211 236.076C265.872 234.857 251.638 247.114 250.419 263.453C249.2 279.792 261.457 294.026 277.796 295.245C294.136 296.464 308.369 284.207 309.589 267.868Z" fill="#D4D8FF"/>
<path d="M284.152 268.269C290.311 265.718 293.236 258.656 290.685 252.497C288.134 246.338 281.072 243.413 274.913 245.964C268.754 248.515 265.829 255.577 268.38 261.736C270.931 267.895 277.993 270.82 284.152 268.269Z" fill="white"/>
<path d="M290.603 269.291C289.631 268.532 288.274 268.558 287.318 269.337C285.165 271.097 282.468 272.057 279.687 272.054C276.995 272.059 274.379 271.158 272.262 269.495C271.288 268.731 269.908 268.747 268.968 269.552C266.533 271.64 265.05 274.652 265.05 278.566V278.919C265.05 279.4 265.145 279.877 265.329 280.321C265.513 280.766 265.783 281.17 266.124 281.51C266.464 281.851 266.868 282.121 267.313 282.305C267.757 282.489 268.234 282.584 268.715 282.584H291.273C292.245 282.584 293.177 282.197 293.864 281.51C294.552 280.823 294.938 279.891 294.938 278.919V278.566C294.938 274.484 293.282 271.384 290.603 269.291Z" fill="white"/>
<path d="M447.61 245.051H324.234C322.483 245.051 321.063 244.308 321.063 243.392C321.063 242.476 322.483 241.733 324.234 241.733H447.61C449.362 241.733 450.782 242.476 450.782 243.392C450.781 244.308 449.362 245.051 447.61 245.051ZM447.61 254.779H324.234C322.483 254.779 321.063 254.037 321.063 253.12C321.063 252.204 322.483 251.462 324.234 251.462H447.61C449.362 251.462 450.782 252.204 450.782 253.12C450.781 254.037 449.362 254.779 447.61 254.779ZM447.61 264.508H324.234C322.483 264.508 321.063 263.765 321.063 262.849C321.063 261.933 322.483 261.19 324.234 261.19H447.61C449.362 261.19 450.782 261.933 450.782 262.849C450.781 263.765 449.362 264.508 447.61 264.508ZM447.61 274.236H324.234C322.483 274.236 321.063 273.493 321.063 272.577C321.063 271.661 322.483 270.918 324.234 270.918H447.61C449.362 270.918 450.782 271.661 450.782 272.577C450.781 273.493 449.362 274.236 447.61 274.236ZM447.61 283.964H324.234C322.483 283.964 321.063 283.222 321.063 282.306C321.063 281.389 322.483 280.647 324.234 280.647H447.61C449.362 280.647 450.782 281.389 450.782 282.306C450.781 283.222 449.362 283.964 447.61 283.964Z" fill="#D4D8FF"/>
<path d="M267.597 376.099H263.833C258.82 376.099 254.756 372.035 254.756 367.022C254.756 362.009 258.819 357.945 263.833 357.945H267.597C272.61 357.945 276.674 362.009 276.674 367.022C276.674 372.035 272.609 376.099 267.597 376.099ZM267.596 400.925H263.832C258.819 400.925 254.755 396.861 254.755 391.848C254.755 386.835 258.819 382.77 263.832 382.77H267.596C272.609 382.77 276.673 386.834 276.673 391.848C276.674 396.861 272.609 400.925 267.596 400.925Z" fill="#FFD9F5"/>
<path d="M415.964 362.929H293.01C292.637 362.929 292.279 362.78 292.015 362.516C291.751 362.252 291.602 361.894 291.602 361.521C291.602 361.147 291.751 360.789 292.015 360.525C292.279 360.261 292.637 360.113 293.01 360.113H415.964C416.333 360.12 416.684 360.271 416.942 360.535C417.201 360.798 417.345 361.152 417.345 361.521C417.345 361.889 417.201 362.243 416.942 362.507C416.684 362.77 416.333 362.921 415.964 362.929ZM327.93 371.085H293.011C292.637 371.085 292.279 370.937 292.015 370.673C291.751 370.409 291.603 370.051 291.603 369.677C291.603 369.304 291.751 368.945 292.015 368.681C292.279 368.417 292.637 368.269 293.011 368.269H327.93C328.297 368.279 328.645 368.432 328.901 368.695C329.157 368.958 329.3 369.31 329.3 369.677C329.3 370.044 329.157 370.396 328.901 370.659C328.645 370.922 328.297 371.075 327.93 371.085ZM352.666 389.299H293.01C292.637 389.299 292.279 389.151 292.014 388.886C291.75 388.622 291.602 388.264 291.602 387.891C291.602 387.517 291.75 387.159 292.014 386.895C292.279 386.631 292.637 386.483 293.01 386.483H352.666C353.04 386.483 353.398 386.631 353.662 386.895C353.926 387.159 354.075 387.517 354.075 387.891C354.075 388.264 353.926 388.622 353.662 388.886C353.398 389.151 353.04 389.299 352.666 389.299ZM339.706 397.745H293.01C292.637 397.745 292.279 397.597 292.014 397.333C291.75 397.069 291.602 396.711 291.602 396.337C291.602 395.964 291.75 395.606 292.014 395.341C292.279 395.077 292.637 394.929 293.01 394.929H339.706C340.08 394.929 340.438 395.077 340.702 395.341C340.966 395.606 341.114 395.964 341.114 396.337C341.114 396.711 340.966 397.069 340.702 397.333C340.438 397.597 340.08 397.745 339.706 397.745ZM353.466 371.085H335.828C335.454 371.085 335.096 370.937 334.832 370.673C334.568 370.409 334.419 370.051 334.419 369.677C334.419 369.304 334.568 368.945 334.832 368.681C335.096 368.417 335.454 368.269 335.828 368.269H353.466C353.84 368.269 354.198 368.417 354.462 368.681C354.726 368.945 354.875 369.304 354.875 369.677C354.875 370.051 354.726 370.409 354.462 370.673C354.198 370.937 353.84 371.085 353.466 371.085ZM377.147 389.299H359.508C359.135 389.299 358.777 389.151 358.513 388.886C358.249 388.622 358.1 388.264 358.1 387.891C358.1 387.517 358.249 387.159 358.513 386.895C358.777 386.631 359.135 386.483 359.508 386.483H377.147C377.521 386.483 377.879 386.631 378.143 386.895C378.407 387.159 378.555 387.517 378.555 387.891C378.555 388.264 378.407 388.622 378.143 388.886C377.879 389.151 377.521 389.299 377.147 389.299ZM411.644 371.085H362.805C362.431 371.085 362.073 370.937 361.809 370.673C361.545 370.409 361.396 370.051 361.396 369.677C361.396 369.304 361.545 368.945 361.809 368.681C362.073 368.417 362.431 368.269 362.805 368.269H411.644C412.018 368.269 412.376 368.417 412.64 368.681C412.904 368.945 413.053 369.304 413.053 369.677C413.053 370.051 412.904 370.409 412.64 370.673C412.376 370.937 412.018 371.085 411.644 371.085Z" fill="#D4D8FF"/>
<path d="M269.756 361.698L265.231 368.018L262.082 365.062L260.185 367.476L265.525 371.008L272.343 363.682L269.756 361.698ZM269.756 387.555L265.231 393.875L262.082 390.919L260.185 393.333L265.525 396.865L272.343 389.539C271.481 388.877 270.618 388.216 269.756 387.555Z" fill="white"/>
<path d="M404.525 412.153H266.313C266.033 412.153 265.764 412.042 265.566 411.843C265.368 411.645 265.256 411.377 265.256 411.097C265.256 410.816 265.368 410.548 265.566 410.35C265.764 410.152 266.033 410.04 266.313 410.04H404.525C404.805 410.04 405.074 410.152 405.272 410.35C405.47 410.548 405.581 410.816 405.581 411.097C405.581 411.377 405.47 411.645 405.272 411.843C405.074 412.042 404.805 412.153 404.525 412.153ZM439.022 421.177H250.296C250.016 421.177 249.747 421.066 249.549 420.868C249.351 420.67 249.24 420.401 249.24 420.121C249.24 419.841 249.351 419.572 249.549 419.374C249.747 419.176 250.016 419.065 250.296 419.065H439.022C439.302 419.065 439.571 419.176 439.769 419.374C439.967 419.572 440.078 419.841 440.078 420.121C440.078 420.401 439.967 420.67 439.769 420.868C439.571 421.066 439.302 421.177 439.022 421.177ZM456.494 429.561H250.296C250.016 429.561 249.747 429.45 249.549 429.252C249.351 429.054 249.24 428.785 249.24 428.505C249.24 428.225 249.351 427.956 249.549 427.758C249.747 427.56 250.016 427.449 250.296 427.449H456.494C456.774 427.449 457.043 427.56 457.241 427.758C457.439 427.956 457.55 428.225 457.55 428.505C457.551 429.089 457.078 429.561 456.494 429.561ZM413.549 437.946H250.296C250.02 437.939 249.757 437.825 249.564 437.628C249.371 437.431 249.263 437.166 249.263 436.89C249.263 436.614 249.371 436.348 249.564 436.151C249.757 435.954 250.02 435.84 250.296 435.834H413.549C413.69 435.83 413.83 435.855 413.96 435.907C414.091 435.959 414.211 436.036 414.311 436.134C414.412 436.233 414.492 436.35 414.546 436.48C414.601 436.61 414.629 436.749 414.629 436.89C414.629 437.03 414.601 437.17 414.546 437.299C414.492 437.429 414.412 437.546 414.311 437.645C414.211 437.743 414.091 437.82 413.96 437.872C413.83 437.924 413.69 437.949 413.549 437.946ZM430.19 446.33H250.296C250.016 446.33 249.747 446.219 249.549 446.021C249.351 445.823 249.24 445.554 249.24 445.274C249.24 444.994 249.351 444.725 249.549 444.527C249.747 444.329 250.016 444.217 250.296 444.217H430.189C430.469 444.218 430.738 444.329 430.936 444.527C431.134 444.725 431.245 444.994 431.245 445.274C431.245 445.412 431.218 445.55 431.165 445.678C431.112 445.806 431.034 445.922 430.936 446.021C430.838 446.119 430.722 446.196 430.594 446.25C430.466 446.303 430.329 446.33 430.19 446.33ZM450.926 454.714H250.296C250.016 454.714 249.747 454.603 249.549 454.405C249.351 454.207 249.24 453.938 249.24 453.658C249.24 453.378 249.351 453.109 249.549 452.911C249.747 452.713 250.016 452.602 250.296 452.602H450.926C451.206 452.602 451.475 452.713 451.673 452.911C451.871 453.109 451.983 453.378 451.983 453.658C451.983 453.938 451.871 454.207 451.673 454.405C451.475 454.603 451.206 454.714 450.926 454.714ZM452.174 470.842H388.326C388.181 470.843 388.038 470.814 387.904 470.759C387.771 470.703 387.65 470.622 387.547 470.52C387.341 470.314 387.225 470.034 387.225 469.742C387.225 469.45 387.34 469.17 387.547 468.963C387.753 468.757 388.033 468.641 388.325 468.641H452.173C452.459 468.65 452.731 468.769 452.93 468.975C453.129 469.18 453.241 469.455 453.241 469.741C453.241 470.028 453.129 470.303 452.93 470.508C452.731 470.714 452.46 470.834 452.174 470.842ZM452.174 475.962H428.903C428.611 475.962 428.331 475.846 428.125 475.64C427.918 475.434 427.802 475.154 427.802 474.862C427.802 474.57 427.918 474.29 428.125 474.083C428.331 473.877 428.611 473.761 428.903 473.761H452.174C452.782 473.761 453.275 474.254 453.275 474.862C453.275 475.154 453.159 475.434 452.952 475.64C452.746 475.847 452.466 475.962 452.174 475.962ZM419.148 475.962H406.63C406.338 475.962 406.058 475.846 405.852 475.64C405.645 475.434 405.529 475.154 405.529 474.862C405.529 474.57 405.645 474.29 405.852 474.083C406.058 473.877 406.338 473.761 406.63 473.761H419.148C419.757 473.761 420.249 474.254 420.249 474.862C420.249 475.006 420.221 475.149 420.166 475.283C420.11 475.417 420.029 475.538 419.927 475.64C419.825 475.742 419.703 475.824 419.57 475.879C419.436 475.934 419.293 475.963 419.148 475.962ZM452.174 481.205H439.655C439.364 481.205 439.083 481.089 438.877 480.883C438.671 480.676 438.555 480.396 438.555 480.104C438.555 479.812 438.671 479.532 438.877 479.326C439.083 479.119 439.364 479.003 439.655 479.003H452.174C452.46 479.012 452.731 479.132 452.93 479.338C453.129 479.543 453.241 479.818 453.241 480.104C453.241 480.39 453.129 480.665 452.93 480.871C452.731 481.076 452.46 481.196 452.174 481.205Z" fill="#D4D8FF"/>
<path d="M261.734 304.766C261.787 304.715 261.825 304.651 261.843 304.58C261.862 304.509 261.86 304.434 261.838 304.364C261.815 304.294 261.774 304.231 261.718 304.184C261.662 304.136 261.594 304.105 261.522 304.094L259.752 303.822C259.689 303.812 259.629 303.787 259.578 303.749C259.527 303.711 259.485 303.662 259.458 303.604L258.678 301.992C258.646 301.926 258.597 301.87 258.535 301.831C258.473 301.792 258.401 301.771 258.327 301.77C258.254 301.769 258.182 301.789 258.119 301.828C258.057 301.866 258.006 301.921 257.973 301.986L257.168 303.585C257.139 303.642 257.097 303.691 257.045 303.728C256.993 303.765 256.933 303.789 256.87 303.798L255.096 304.041C255.023 304.051 254.955 304.081 254.898 304.128C254.842 304.175 254.799 304.237 254.776 304.306C254.753 304.376 254.75 304.451 254.767 304.522C254.784 304.594 254.82 304.659 254.873 304.71L256.144 305.971C256.19 306.015 256.223 306.071 256.243 306.132C256.262 306.192 256.266 306.257 256.255 306.32L255.938 308.082C255.925 308.154 255.932 308.229 255.959 308.297C255.986 308.365 256.032 308.424 256.091 308.468C256.15 308.512 256.22 308.538 256.293 308.544C256.367 308.55 256.44 308.535 256.505 308.501L258.097 307.681C258.153 307.652 258.216 307.637 258.28 307.637C258.344 307.638 258.407 307.654 258.463 307.684L260.041 308.531C260.106 308.565 260.179 308.581 260.252 308.576C260.325 308.571 260.396 308.546 260.455 308.504C260.515 308.461 260.562 308.402 260.59 308.335C260.618 308.267 260.627 308.193 260.615 308.12L260.327 306.353C260.317 306.29 260.322 306.226 260.342 306.165C260.362 306.105 260.397 306.05 260.443 306.006L261.734 304.766ZM273.344 304.766C273.397 304.715 273.435 304.651 273.453 304.58C273.472 304.509 273.47 304.434 273.448 304.364C273.425 304.294 273.384 304.231 273.328 304.184C273.273 304.136 273.204 304.105 273.132 304.094L271.362 303.822C271.299 303.812 271.239 303.787 271.188 303.749C271.137 303.711 271.095 303.662 271.068 303.604L270.288 301.992C270.256 301.926 270.207 301.87 270.145 301.831C270.083 301.792 270.011 301.771 269.937 301.77C269.864 301.769 269.792 301.789 269.729 301.828C269.667 301.866 269.616 301.921 269.583 301.986L268.778 303.585C268.749 303.642 268.707 303.691 268.655 303.728C268.603 303.765 268.543 303.789 268.48 303.798L266.706 304.041C266.633 304.051 266.565 304.081 266.508 304.128C266.452 304.175 266.409 304.237 266.386 304.306C266.363 304.376 266.36 304.451 266.377 304.522C266.394 304.594 266.43 304.659 266.483 304.71L267.754 305.971C267.8 306.015 267.833 306.071 267.853 306.132C267.872 306.192 267.876 306.257 267.865 306.32L267.548 308.082C267.535 308.154 267.542 308.229 267.569 308.297C267.596 308.365 267.642 308.424 267.701 308.468C267.76 308.512 267.83 308.538 267.904 308.544C267.977 308.55 268.05 308.535 268.115 308.501L269.707 307.681C269.763 307.652 269.826 307.637 269.89 307.637C269.954 307.638 270.017 307.654 270.073 307.684L271.651 308.531C271.716 308.565 271.789 308.581 271.862 308.576C271.935 308.571 272.006 308.546 272.065 308.504C272.125 308.461 272.172 308.402 272.2 308.335C272.228 308.267 272.237 308.193 272.225 308.12L271.937 306.353C271.927 306.29 271.932 306.226 271.952 306.165C271.972 306.105 272.007 306.05 272.053 306.006L273.344 304.766ZM284.954 304.766C285.007 304.715 285.045 304.651 285.063 304.58C285.081 304.508 285.079 304.434 285.057 304.364C285.035 304.293 284.993 304.231 284.937 304.183C284.882 304.136 284.813 304.105 284.741 304.094L282.971 303.822C282.908 303.812 282.848 303.787 282.797 303.749C282.746 303.711 282.704 303.662 282.677 303.604L281.897 301.992C281.865 301.926 281.816 301.87 281.754 301.831C281.692 301.792 281.62 301.771 281.546 301.77C281.473 301.769 281.401 301.789 281.338 301.828C281.276 301.866 281.225 301.921 281.192 301.986L280.387 303.585C280.358 303.642 280.316 303.691 280.264 303.728C280.212 303.765 280.152 303.789 280.089 303.798L278.316 304.041C278.243 304.051 278.174 304.081 278.118 304.128C278.061 304.175 278.019 304.237 277.996 304.306C277.972 304.376 277.969 304.451 277.986 304.522C278.003 304.594 278.04 304.659 278.092 304.71L279.364 305.971C279.409 306.015 279.443 306.071 279.462 306.132C279.481 306.192 279.485 306.257 279.474 306.32L279.157 308.082C279.144 308.154 279.152 308.229 279.179 308.297C279.206 308.365 279.252 308.424 279.311 308.468C279.37 308.512 279.44 308.538 279.513 308.544C279.586 308.55 279.66 308.535 279.725 308.501L281.316 307.681C281.373 307.652 281.436 307.637 281.5 307.637C281.563 307.638 281.626 307.654 281.682 307.684L283.26 308.531C283.325 308.565 283.398 308.581 283.472 308.577C283.545 308.572 283.615 308.547 283.675 308.504C283.735 308.462 283.782 308.403 283.81 308.335C283.838 308.267 283.846 308.193 283.834 308.12L283.546 306.353C283.536 306.29 283.541 306.226 283.561 306.165C283.581 306.105 283.616 306.05 283.662 306.006L284.954 304.766ZM296.564 304.766C296.617 304.715 296.655 304.651 296.673 304.58C296.691 304.509 296.689 304.434 296.667 304.364C296.645 304.294 296.604 304.231 296.548 304.184C296.492 304.136 296.424 304.105 296.351 304.094L294.582 303.822C294.519 303.812 294.459 303.787 294.407 303.749C294.356 303.711 294.315 303.662 294.287 303.604L293.508 301.992C293.476 301.926 293.426 301.87 293.364 301.831C293.302 301.792 293.23 301.771 293.157 301.77C293.084 301.769 293.011 301.789 292.949 301.828C292.886 301.866 292.835 301.921 292.802 301.986L291.997 303.585C291.969 303.642 291.926 303.691 291.875 303.728C291.823 303.765 291.763 303.789 291.699 303.798L289.926 304.041C289.853 304.051 289.784 304.081 289.728 304.128C289.671 304.175 289.629 304.237 289.606 304.306C289.582 304.376 289.579 304.451 289.596 304.522C289.613 304.594 289.65 304.659 289.702 304.71L290.974 305.971C291.019 306.015 291.053 306.071 291.072 306.132C291.091 306.192 291.095 306.257 291.084 306.32L290.767 308.082C290.754 308.154 290.762 308.229 290.789 308.297C290.816 308.365 290.862 308.424 290.921 308.468C290.98 308.512 291.05 308.538 291.123 308.544C291.196 308.55 291.27 308.535 291.335 308.501L292.926 307.681C292.983 307.652 293.046 307.637 293.11 307.637C293.173 307.638 293.236 307.654 293.292 307.684L294.87 308.531C294.935 308.565 295.008 308.581 295.082 308.577C295.155 308.572 295.225 308.547 295.285 308.504C295.345 308.462 295.392 308.403 295.42 308.335C295.448 308.267 295.456 308.193 295.444 308.12L295.156 306.353C295.146 306.29 295.151 306.226 295.171 306.165C295.191 306.105 295.226 306.05 295.272 306.006L296.564 304.766ZM308.173 304.766C308.226 304.715 308.264 304.651 308.282 304.58C308.301 304.509 308.299 304.434 308.276 304.364C308.254 304.294 308.213 304.231 308.157 304.184C308.101 304.136 308.033 304.105 307.961 304.094L306.191 303.822C306.128 303.812 306.068 303.787 306.017 303.75C305.966 303.712 305.924 303.662 305.897 303.604L305.117 301.992C305.085 301.926 305.036 301.87 304.974 301.831C304.912 301.792 304.84 301.771 304.766 301.77C304.693 301.769 304.621 301.789 304.558 301.828C304.496 301.866 304.445 301.921 304.412 301.986L303.607 303.585C303.578 303.642 303.536 303.691 303.484 303.728C303.432 303.765 303.372 303.789 303.309 303.798L301.535 304.041C301.462 304.051 301.394 304.081 301.337 304.128C301.281 304.175 301.238 304.237 301.215 304.306C301.192 304.376 301.189 304.451 301.206 304.522C301.223 304.594 301.259 304.659 301.312 304.71L302.583 305.971C302.629 306.015 302.662 306.071 302.682 306.132C302.701 306.192 302.705 306.257 302.694 306.32L302.377 308.082C302.364 308.154 302.371 308.229 302.398 308.297C302.425 308.365 302.471 308.424 302.53 308.468C302.589 308.512 302.659 308.538 302.732 308.544C302.806 308.55 302.879 308.535 302.944 308.501L304.536 307.681C304.592 307.652 304.655 307.637 304.719 307.637C304.783 307.638 304.846 307.654 304.902 307.684L306.479 308.531C306.544 308.565 306.617 308.581 306.69 308.576C306.764 308.571 306.834 308.546 306.894 308.504C306.954 308.461 307 308.402 307.028 308.335C307.057 308.267 307.065 308.193 307.054 308.12L306.765 306.353C306.755 306.29 306.761 306.226 306.781 306.165C306.801 306.105 306.835 306.05 306.881 306.006L308.173 304.766Z" fill="#FFD9F5"/>
<path d="M341.05 308.578H324.678C324.351 308.578 324.028 308.513 323.726 308.388C323.424 308.263 323.15 308.08 322.919 307.849C322.688 307.618 322.504 307.344 322.379 307.042C322.254 306.74 322.19 306.417 322.19 306.09V293.814C322.19 293.488 322.254 293.164 322.379 292.862C322.504 292.56 322.688 292.286 322.919 292.055C323.15 291.824 323.424 291.641 323.726 291.516C324.028 291.391 324.351 291.326 324.678 291.326H341.05C341.377 291.326 341.701 291.391 342.002 291.516C342.304 291.641 342.579 291.824 342.81 292.055C343.041 292.286 343.224 292.56 343.349 292.862C343.474 293.164 343.538 293.488 343.538 293.814V306.09C343.538 306.75 343.276 307.382 342.809 307.849C342.343 308.316 341.71 308.578 341.05 308.578Z" fill="#D4D8FF"/>
<path d="M370.573 308.578H354.2C353.541 308.578 352.908 308.316 352.441 307.849C351.975 307.382 351.713 306.75 351.713 306.09V293.814C351.713 293.488 351.777 293.164 351.902 292.862C352.027 292.56 352.21 292.286 352.441 292.055C352.672 291.824 352.946 291.641 353.248 291.516C353.55 291.391 353.874 291.326 354.2 291.326H370.573C371.233 291.326 371.865 291.589 372.332 292.055C372.798 292.522 373.061 293.154 373.061 293.814V306.09C373.06 306.75 372.798 307.382 372.332 307.849C371.865 308.315 371.232 308.578 370.573 308.578Z" fill="#FFD9F5"/>
<path d="M400.095 308.578H383.723C383.063 308.578 382.43 308.316 381.964 307.849C381.497 307.382 381.235 306.75 381.235 306.09V293.814C381.235 293.488 381.299 293.164 381.424 292.862C381.549 292.56 381.732 292.286 381.963 292.055C382.194 291.824 382.469 291.641 382.771 291.516C383.072 291.391 383.396 291.326 383.723 291.326H400.095C400.755 291.326 401.388 291.589 401.854 292.055C402.321 292.522 402.583 293.154 402.583 293.814V306.09C402.583 306.75 402.321 307.382 401.854 307.849C401.388 308.316 400.755 308.578 400.095 308.578Z" fill="#D4D8FF"/>
<path d="M254.756 319.714H450.782V329.026H254.756V319.714Z" fill="#FFD9F5"/>
<path d="M254.756 335.612H450.782V344.923H254.756V335.612Z" fill="#D4D8FF"/>
<path d="M488.299 342.548C486.982 341.43 485.538 340.465 484.282 339.273C482.858 337.919 481.86 336.272 481.554 334.309C481.224 332.2 481.664 330.027 482.694 328.167C483.8 326.17 485.523 324.531 487.47 323.358C487.548 323.311 487.478 323.191 487.398 323.236C483.82 325.246 481.035 328.81 481.041 333.055C481.043 335.073 481.707 337.013 482.987 338.574C484.129 339.968 485.614 341.023 487.014 342.136C487.778 342.742 488.53 343.369 489.193 344.086C489.885 344.834 490.359 345.685 490.878 346.553C490.976 346.716 491.209 346.604 491.174 346.428C490.868 344.848 489.473 343.544 488.299 342.548ZM526.943 394.54H529.826V468.578H526.943V394.54Z" fill="#333180"/>
<path d="M528.221 419.438C531.749 419.438 534.609 416.578 534.609 413.05V366.662C534.609 363.133 531.749 360.273 528.221 360.273C524.692 360.273 521.833 363.133 521.833 366.662V413.05C521.833 416.578 524.693 419.438 528.221 419.438Z" fill="#FF80CD"/>
<path d="M498.901 568.577V478.013H501.947V568.577H509.22V570.837H491.137V568.577H498.901ZM545.611 369.272C546.234 368.54 552.451 364.336 551.798 358.8C551.615 357.307 551.281 355.989 550.824 354.823C550.953 352.683 550.655 350.542 549.53 348.696C547.74 345.757 544.31 344.397 541.05 343.878C537.024 343.238 532.894 343.642 528.932 342.547C525.696 341.653 522.672 339.991 520.134 337.798C518.467 336.355 517.013 334.683 515.815 332.831C514.032 328.122 512.712 323.724 505.412 322.968C498.758 322.279 496.439 316.905 487.658 321.978C480.568 326.076 480.127 337.171 487.86 340.994C495.608 344.825 488.454 346.766 487.538 357.825C485.989 365.744 506.397 380.322 509.869 387.309C513.839 391.272 519.026 383.717 524.009 386.029C524.482 386.248 524.901 386.461 525.299 386.67C525.347 386.721 525.391 386.774 525.439 386.824C525.858 387.253 526.284 387.674 526.718 388.088C527.543 388.875 528.396 389.628 529.299 390.324C531.072 391.691 533.065 392.865 535.255 393.406C537.2 393.887 539.297 393.936 541.228 393.358C543.155 392.786 544.808 391.531 545.876 389.828C546.162 389.37 546.417 388.892 546.638 388.398C547.06 387.889 547.393 387.334 547.586 386.723C550.871 379.734 541.954 373.567 545.611 369.272ZM516.226 333.892C518.773 337.575 522.404 340.493 526.589 342.172C528.126 342.79 529.73 343.229 531.368 343.48C533.482 343.801 535.623 343.837 537.754 343.972C541.334 344.199 545.248 344.83 547.875 347.52C549.476 349.16 550.075 351.224 550.146 353.374C546.482 346.619 538.002 345.885 531.703 345.033C521.046 343.591 518.147 338.709 516.226 333.892ZM545.585 389.43C544.645 390.97 543.28 392.168 541.556 392.789C537.609 394.211 533.364 392.782 530.076 390.479C529.035 389.75 528.056 388.933 527.11 388.086C526.724 387.741 526.346 387.387 525.968 387.033C529.35 388.941 530.198 390.438 534.877 391.671C537.906 392.47 542.771 391.643 545.585 389.43Z" fill="#333180"/>
<path d="M469.283 555.724C473.569 556.219 474.769 555.123 480.413 551.6C478.117 542.261 465.459 492.921 456.379 470.87C470.752 458.29 535.192 475.7 512.508 421.416L482.98 427.431C484.405 433.584 438.549 445.375 434.272 461.128C429.535 478.573 457.064 525.395 469.283 555.724Z" fill="#F9BDBD"/>
<path d="M480.413 551.6C483.42 553.899 485.071 557.285 485.45 561.689L456.519 572.808C450.146 562.711 468.917 561.429 469.283 555.725C473.519 555.46 477.094 553.799 480.413 551.6Z" fill="#333180"/>
<path d="M420.35 560.174C422.193 562.189 429.295 562.02 432.209 560.17C433.335 550.619 439.258 502.764 438.491 478.93C449.171 474.903 485.741 479.852 504.207 472.017C516.644 466.741 520.079 456.612 519.195 432.951L480.162 430.838C479.337 437.101 430.278 445.973 420.746 459.224C410.191 473.898 419.549 527.486 420.35 560.174Z" fill="#F9CBCB"/>
<path d="M432.214 560.133C434.222 563.342 434.581 567.091 433.391 571.349L402.399 571.61C399.972 559.92 418 565.304 420.345 560.092C424.404 561.33 428.334 561.029 432.214 560.133Z" fill="#333180"/>
<path d="M494.05 358.44L492.752 382.104C492.752 382.104 463.882 393.281 458.8 393.625C451.057 394.144 436.22 387.569 428.646 383.908C425.998 382.63 424.232 381.701 423.973 381.565C416.412 382.935 404.949 374.595 406.117 372.836C407.286 371.077 417.593 373.94 418.281 373.297C418.962 372.655 417.19 371.837 417.904 370.357C418.56 368.981 424.869 374.751 425.758 375.575L425.777 375.523L429.581 376.283L456.458 381.67C464.765 377.307 485.34 362.957 494.05 358.44Z" fill="#F9CBCB"/>
<path d="M494.05 358.44L492.752 382.104C492.752 382.104 463.882 393.281 458.8 393.625C451.057 394.144 436.22 387.569 428.646 383.908L429.58 376.282L456.458 381.669C464.765 377.307 485.34 362.957 494.05 358.44Z" fill="#8FACFF"/>
<path d="M504.262 358.649C504.743 358.634 505.217 358.734 505.649 358.947C508.823 360.522 521.702 364.991 523.244 383.997C524.068 394.143 522.807 424.756 522.393 434.542C522.333 435.977 521.157 437.473 519.789 437.911C508.436 441.547 485.342 439.959 477.23 435.078C475.717 434.169 475.484 432.122 476.598 430.754C485.231 420.14 474.454 396.393 478.95 376.735C481.456 365.777 491.745 359.006 491.745 359.006L504.262 358.649Z" fill="#7A9DFF"/>
<path d="M504.968 358.627C500.337 363.492 495.88 364.512 491.735 359.038L492.637 349.85L493.013 345.982L503.521 345.723L503.783 348.109L504.968 358.627Z" fill="#F9CBCB"/>
<path d="M503.974 349.809C501.454 352.998 494.321 354.079 492.348 352.787L493.013 345.982L503.471 341.286L503.974 349.809Z" fill="#F0B4B4"/>
<path d="M486.368 330.143C484.4 335.041 483.896 347.955 488.024 350.642C491.442 352.866 498.901 351.559 504.077 344.614C506.715 342.865 508.579 339.164 506.304 337.014C504.682 335.482 502.851 338.168 499.943 337.407C498.84 337.119 502.358 332.823 498.229 331.99C494.854 331.31 488.315 333.067 486.368 330.143ZM512.002 391.658C505.667 400.167 490.739 414.764 485.664 416.945C481.86 418.587 457.307 418.295 445.28 418.049C443.599 418.016 442.171 417.977 441.068 417.951C439.084 418.32 437.082 418.586 435.071 418.75C432.936 418.925 432.092 415.829 429.002 416.4C425.92 416.965 422.856 418.757 420.279 419.743C417.709 420.736 421.377 413.415 424.265 411.318C426.231 409.897 433.221 409.682 437.512 409.689V409.676L443.703 408.982L478.459 405.087C484.204 397.299 489.617 378.593 502.831 370.889C513.742 364.528 522.121 378.08 512.002 391.658Z" fill="#F9CBCB"/>
<path d="M397.994 377.948L403.903 413.363H440.155V418.24H399.066L392.343 377.948H397.994Z" fill="#333180"/>
<path d="M470.269 480.109H527.664C531.102 480.109 533.889 477.323 533.889 473.885C533.889 470.447 531.102 467.66 527.664 467.66H470.269C466.831 467.66 464.044 470.447 464.044 473.885C464.044 477.322 466.831 480.109 470.269 480.109Z" fill="#FF80CD"/>
<path d="M512.002 391.658C505.667 400.167 490.739 414.764 485.664 416.945C481.86 418.587 457.307 418.295 445.28 418.048C444.709 414.926 444.073 411.337 443.703 408.981L478.459 405.087C484.204 397.299 489.617 378.593 502.831 370.889C513.742 364.528 522.121 378.08 512.002 391.658Z" fill="#8FACFF"/>
<path d="M347.295 423.029H350.966V571.601H347.295V423.029ZM198.731 568.488V476.01H195.62V568.488H188.194V570.796H206.659V568.488H198.731ZM167.153 390.775H170.096V466.376H167.153V390.775Z" fill="#333180"/>
<path d="M267.049 402.559C267.049 402.559 284.157 404.816 286.773 407.613C289.39 410.409 291.756 418.861 289.249 417.292C286.741 415.723 283.882 413.221 280.754 411.992C277.621 410.762 275.958 413.883 273.931 412.807C271.904 411.731 266.236 410.553 266.236 410.553L267.049 402.559Z" fill="#EBB0B0"/>
<path d="M264.971 407.533C264.971 407.533 279.658 405.585 282.955 407.533C286.252 409.482 290.898 416.928 288.05 416.128C285.203 415.327 281.756 413.728 278.409 413.428C275.056 413.128 274.338 416.59 272.09 416.128C269.842 415.664 264.072 416.128 264.072 416.128L264.971 407.533ZM222.252 538.881L217.61 551.152C221.011 553.757 224.722 555.402 228.975 555.364L234.662 543.171L222.252 538.881Z" fill="#F9CBCB"/>
<path d="M234.165 551.371C227.106 549.976 223.532 548.526 217.769 544.929C220.114 535.393 226.168 492.778 235.441 470.261C220.763 457.415 161.673 473.648 184.837 418.218L214.989 424.36C213.533 430.644 260.358 442.683 264.726 458.769C269.562 476.583 246.642 520.401 234.165 551.371Z" fill="#222054"/>
<path d="M217.61 551.152C214.54 553.5 212.853 556.957 212.466 561.454L242.008 572.807C248.516 562.498 229.349 561.188 228.974 555.363C224.649 555.094 220.999 553.398 217.61 551.152Z" fill="#2C2A6E"/>
<path d="M266.868 546.746L266.827 559.866C270.926 561.112 274.978 561.35 278.947 559.823L279.995 546.41L266.868 546.746Z" fill="#F9CBCB"/>
<path d="M282.407 554.263C275.306 555.433 271.451 555.329 264.793 553.982C263.643 544.23 254.362 502.2 255.145 477.861C244.238 473.75 212.169 477.889 193.313 469.889C180.613 464.501 177.106 454.158 178.008 429.998L217.866 427.84C218.707 434.235 268.803 443.295 278.537 456.826C289.315 471.809 283.225 520.884 282.407 554.263ZM266.827 559.866C264.775 563.142 264.41 566.97 265.625 571.318L297.272 571.585C299.749 559.647 281.341 565.146 278.947 559.823C274.801 561.087 270.789 560.78 266.827 559.866Z" fill="#2C2A6E"/>
<path d="M217.409 356.945C229.125 367.029 231.722 385.757 236.084 392.632L268.043 400.54L266.644 411.107C266.644 411.107 236.908 409.985 231.895 407.401C226.881 404.817 200.762 377.251 200.762 377.251C200.762 377.251 201.902 343.597 217.409 356.945Z" fill="#FFBC54"/>
<path d="M204.768 354.946C204.284 354.868 203.789 354.911 203.325 355.071C199.908 356.259 185.526 362.158 182.29 378.193C180.191 388.59 177.402 420.828 176.626 430.093C176.503 431.573 177.469 432.928 178.915 433.268C193.342 436.664 214.479 434.77 220.427 429.711C221.17 429.079 221.549 428.124 221.47 427.152C219.553 403.524 228.328 397.906 226.644 371.5C226.25 365.318 220.166 359.386 218.094 357.536C217.665 357.152 217.133 356.9 216.564 356.812L204.768 354.946Z" fill="#FAA82B"/>
<path d="M215.064 344.698C210.572 345.374 208.514 347.254 203.402 343.943C195.624 338.905 190.767 323.384 202.846 318.529C203.96 316.357 204.867 315.584 207.886 315.392C210.903 315.201 213.706 316.926 217.744 317.468C221.782 318.01 228.108 314.727 230.732 321.116C233.355 327.504 223.958 330.739 219.158 332.961C214.355 335.184 215.017 340.374 215.064 344.698Z" fill="#2C2A6E"/>
<path d="M204.055 354.833C208.124 360.356 212.508 361.96 217.409 356.945L217.672 347.521L217.787 343.555L207.175 341.946L206.605 344.33L204.055 354.833Z" fill="#F9CBCB"/>
<path d="M206.192 346.028C208.336 349.581 215.423 351.59 217.588 350.534L217.786 343.555L207.793 337.458L206.192 346.028Z" fill="#F0B4B4"/>
<path d="M226.037 325.831C227.155 331.632 227.224 344.092 221.867 347.909C218.476 350.325 207.913 347.591 206.917 339.38C204.612 337.113 203.405 332.257 206.104 330.544C208.029 329.325 209.609 333.558 212.671 333.362C213.834 333.287 211.518 325.246 215.227 324.476C218.936 323.707 222.224 327.092 226.037 325.831Z" fill="#F9CBCB"/>
<path d="M204.017 368.697C218.799 376.705 234.896 405.785 234.896 405.785L268.744 407.436L268.346 418.579C268.346 418.579 230.872 422.657 225.633 420.569C220.394 418.479 198.949 400.087 192.242 391.578C181.537 377.996 192.675 362.553 204.017 368.697Z" fill="#FFC05F"/>
<path d="M223.499 418.218H494.052V427.839H223.499V418.218ZM232.399 478.151H164.93C164.419 478.151 163.93 477.948 163.569 477.587C163.208 477.226 163.005 476.737 163.005 476.226V467.364C163.005 466.854 163.208 466.364 163.569 466.003C163.93 465.642 164.419 465.44 164.93 465.44H232.4C232.652 465.44 232.903 465.489 233.136 465.586C233.37 465.683 233.582 465.825 233.761 466.003C233.939 466.182 234.081 466.394 234.178 466.628C234.275 466.861 234.324 467.112 234.324 467.364V476.226C234.324 476.737 234.121 477.226 233.76 477.587C233.399 477.948 232.91 478.151 232.399 478.151ZM173.34 416.198H164.244C163.72 416.198 163.218 415.99 162.847 415.619C162.477 415.249 162.269 414.746 162.269 414.223V357.76C162.269 357.5 162.32 357.243 162.419 357.003C162.518 356.764 162.664 356.546 162.847 356.362C163.031 356.179 163.249 356.033 163.488 355.934C163.728 355.835 163.985 355.784 164.244 355.784H173.34C173.599 355.784 173.856 355.835 174.096 355.934C174.335 356.033 174.553 356.179 174.737 356.362C174.92 356.546 175.066 356.764 175.165 357.003C175.264 357.243 175.315 357.5 175.315 357.76V414.223C175.315 414.746 175.107 415.249 174.736 415.619C174.366 415.99 173.863 416.198 173.34 416.198Z" fill="#FF80CD"/>
<path d="M202.758 318.523C198.968 318.6 195.427 320.824 194.176 324.492C193.511 326.442 193.716 328.52 194.29 330.466C194.789 332.156 195.552 333.784 196.584 335.215C197.147 335.997 197.787 336.724 198.51 337.361C199.227 337.993 200.056 338.634 200.966 338.952C201.208 339.036 201.325 338.688 201.132 338.558C200.436 338.089 199.712 337.694 199.065 337.151C198.471 336.651 197.925 336.096 197.435 335.493C196.381 334.2 195.576 332.698 195.018 331.129C194.373 329.314 193.972 327.325 194.401 325.414C194.781 323.72 195.737 322.182 197.049 321.051C198.617 319.7 200.703 318.928 202.758 318.793C202.928 318.781 202.932 318.52 202.758 318.523Z" fill="#333180"/>
<path d="M596.146 574.649H59.5607C58.5968 574.649 57.8669 573.825 57.8669 572.808C57.8669 571.791 58.5968 570.966 59.497 570.966H596.082C596.983 570.966 597.712 571.791 597.712 572.808C597.712 573.824 596.983 574.649 596.146 574.649Z" fill="#CCCFF5"/>
<path d="M664.329 574.649H615.967C615.489 574.649 615.03 574.459 614.692 574.121C614.354 573.782 614.164 573.324 614.164 572.845V572.77C614.164 572.292 614.354 571.833 614.692 571.495C615.03 571.156 615.489 570.966 615.967 570.966H664.329C664.808 570.966 665.267 571.156 665.605 571.495C665.943 571.833 666.133 572.292 666.133 572.77V572.845C666.133 573.324 665.943 573.782 665.605 574.121C665.266 574.459 664.808 574.649 664.329 574.649Z" fill="#C8CBE3"/>
<path d="M133.593 323.148C133.491 323.148 133.491 323.307 133.593 323.307C133.695 323.307 133.695 323.148 133.593 323.148Z" fill="#30334D"/>
<path d="M169.152 288.858C161.43 282.981 151.358 280.579 141.688 281.39C135.438 281.915 129.203 283.771 124.109 287.431C119.016 291.091 115.158 296.665 114.276 302.875C113.394 309.084 115.772 315.83 120.81 319.565C126.136 323.513 133.366 323.673 139.925 322.704C148.225 321.477 156.247 318.72 164.561 317.586C168 317.117 171.634 316.953 174.81 318.351C177.987 319.749 180.511 321.396 181.545 326.023C186.679 306.215 176.875 294.734 169.152 288.858Z" fill="#7A9DFF"/>
<path d="M169.152 288.857C161.43 282.981 151.358 280.579 141.688 281.39C135.438 281.915 129.203 283.771 124.109 287.431C119.016 291.09 115.158 296.665 114.276 302.874C113.394 309.084 115.772 315.829 120.81 319.565C126.136 323.513 133.366 323.673 139.925 322.704C148.225 321.477 156.247 318.72 164.561 317.586C168 317.117 171.634 316.953 174.81 318.351C177.987 319.749 180.511 321.395 181.545 326.023C186.679 306.215 176.875 294.734 169.152 288.857Z" fill="#7A9DFF"/>
<path d="M123.002 302.615C123.002 301.824 123.316 301.066 123.875 300.507C124.434 299.947 125.193 299.633 125.983 299.633C126.774 299.633 127.532 299.947 128.092 300.507C128.651 301.066 128.965 301.824 128.965 302.615C128.965 303.405 128.651 304.164 128.092 304.723C127.532 305.282 126.774 305.596 125.983 305.596C125.193 305.596 124.434 305.282 123.875 304.723C123.316 304.164 123.002 303.405 123.002 302.615ZM135.043 302.615C135.043 302.223 135.12 301.836 135.27 301.474C135.42 301.112 135.639 300.783 135.916 300.507C136.193 300.23 136.522 300.01 136.883 299.86C137.245 299.71 137.633 299.633 138.024 299.633C138.416 299.633 138.804 299.71 139.165 299.86C139.527 300.01 139.856 300.23 140.133 300.507C140.409 300.783 140.629 301.112 140.779 301.474C140.929 301.836 141.006 302.223 141.006 302.615C141.006 303.405 140.692 304.164 140.133 304.723C139.573 305.282 138.815 305.596 138.024 305.596C137.234 305.596 136.475 305.282 135.916 304.723C135.357 304.164 135.043 303.405 135.043 302.615ZM147.084 302.615C147.084 302.223 147.161 301.836 147.311 301.474C147.461 301.112 147.68 300.783 147.957 300.507C148.234 300.23 148.563 300.01 148.924 299.86C149.286 299.71 149.674 299.633 150.065 299.633C150.457 299.633 150.845 299.71 151.206 299.86C151.568 300.01 151.897 300.23 152.174 300.507C152.451 300.783 152.67 301.112 152.82 301.474C152.97 301.836 153.047 302.223 153.047 302.615C153.047 303.405 152.733 304.164 152.174 304.723C151.615 305.282 150.856 305.596 150.065 305.596C149.275 305.596 148.516 305.282 147.957 304.723C147.398 304.164 147.084 303.405 147.084 302.615ZM159.125 302.615C159.125 302.223 159.202 301.836 159.352 301.474C159.502 301.112 159.721 300.783 159.998 300.507C160.275 300.23 160.604 300.01 160.965 299.86C161.327 299.71 161.715 299.633 162.106 299.633C162.498 299.633 162.886 299.71 163.247 299.86C163.609 300.01 163.938 300.23 164.215 300.507C164.492 300.783 164.711 301.112 164.861 301.474C165.011 301.836 165.088 302.223 165.088 302.615C165.088 303.405 164.774 304.164 164.215 304.723C163.656 305.282 162.897 305.596 162.106 305.596C161.316 305.596 160.557 305.282 159.998 304.723C159.439 304.164 159.125 303.405 159.125 302.615Z" fill="white"/>
<path d="M155.231 323.278C154.433 323.457 153.694 323.843 152.928 324.128C152.158 324.416 151.375 324.675 150.595 324.935C149.027 325.456 147.462 325.977 145.862 326.391C142.677 327.215 139.401 327.707 136.108 327.76C130.316 327.854 124.497 326.554 119.511 323.545C116.809 321.915 114.33 319.746 112.408 317.239C112.316 317.119 112.111 317.226 112.198 317.361C113.742 319.766 115.659 321.765 117.96 323.459C120.287 325.172 122.89 326.489 125.62 327.431C131.795 329.562 138.401 329.528 144.731 328.098C146.604 327.675 148.473 327.155 150.275 326.49C151.167 326.162 152.039 325.782 152.902 325.386C153.79 324.979 154.771 324.631 155.553 324.041C155.918 323.765 155.719 323.169 155.231 323.278ZM185.434 302.881C184.665 299.675 183.21 296.668 181.196 294.059C180.183 292.748 179.031 291.552 177.76 290.49C177.168 289.992 176.55 289.524 175.911 289.089C175.267 288.653 174.504 288.154 173.758 287.931C173.58 287.877 173.431 288.12 173.572 288.248C174.127 288.75 174.814 289.15 175.415 289.599C176.077 290.089 176.715 290.613 177.324 291.168C178.471 292.224 179.51 293.392 180.427 294.654C182.288 297.205 183.601 300.115 184.284 303.198C184.447 303.946 185.613 303.63 185.434 302.881ZM162.701 321.246C162.361 321.067 161.886 321.128 161.512 321.163C161.137 321.198 160.762 321.258 160.397 321.351C160.043 321.441 159.699 321.562 159.367 321.715C159.014 321.878 158.616 322.055 158.393 322.384C158.207 322.659 158.449 323.133 158.799 323.091C158.935 323.074 159.045 323.062 159.169 323.003C159.245 322.967 159.319 322.924 159.394 322.887C159.528 322.822 159.611 322.785 159.73 322.738C160.034 322.618 160.345 322.516 160.662 322.434C160.815 322.395 160.97 322.362 161.126 322.335C161.296 322.306 161.331 322.301 161.511 322.286C161.669 322.273 161.827 322.265 161.986 322.264C162.177 322.262 162.391 322.301 162.572 322.23C162.775 322.152 162.931 322.011 162.958 321.782C162.983 321.577 162.894 321.347 162.701 321.246Z" fill="#7A9DFF"/>
<path d="M553.738 282.354C544.684 266.568 511.725 268.212 508.622 289.025C507.118 296.565 513.577 302.956 519.478 306.452C528.604 311.858 520.3 317.169 511.678 315.944C530.711 325.694 565.899 303.558 553.738 282.354Z" fill="#FF80CD"/>
<path d="M530.84 299.016C530.84 297.737 531.027 296.343 531.405 294.833C531.782 293.324 532.327 291.489 533.042 289.329L533.339 288.417C533.894 286.593 534.173 285.063 534.173 283.826C534.173 281.876 533.577 280.901 532.386 280.901C531.632 280.901 531.256 281.373 531.256 282.316C531.256 282.547 531.395 283.113 531.672 284.015C531.672 284.036 531.573 284.098 531.375 284.203C530.7 284.518 530.204 284.675 529.887 284.675C528.775 284.675 528.22 283.973 528.22 282.568V282.253C528.22 281.708 528.328 281.242 528.548 280.854C528.765 280.466 529.172 280.126 529.768 279.832C530.442 279.538 531.275 279.392 532.268 279.392C533.14 279.392 533.894 279.476 534.529 279.643C535.164 279.811 535.68 280.042 536.076 280.335C536.711 280.838 537.108 281.583 537.267 282.568C537.306 282.799 537.326 283.208 537.326 283.795C537.326 285.64 536.731 287.653 535.54 289.833C535.024 290.734 534.589 291.872 534.231 293.245C533.872 294.637 533.692 296.069 533.696 297.506C533.696 298.66 533.715 299.361 533.755 299.613C533.041 299.613 532.644 299.635 532.565 299.676C532.485 299.697 532.386 299.707 532.268 299.707C531.474 299.707 530.998 299.477 530.84 299.016ZM530.84 302.884C530.402 302.674 530.185 302.412 530.185 302.098C530.185 301.804 530.423 301.526 530.899 301.264C531.375 301.002 531.911 300.871 532.506 300.871C532.982 300.871 533.458 301.007 533.934 301.28C534.41 301.552 534.648 301.814 534.648 302.066C534.648 302.863 533.853 303.26 532.267 303.26C531.673 303.261 531.196 303.135 530.84 302.884Z" fill="white"/>
<path d="M561.658 289.966C561.619 288.906 561.496 287.851 561.293 286.811C560.883 284.731 560.163 282.725 559.156 280.859C557.25 277.322 554.276 274.42 550.729 272.54C548.769 271.501 546.66 270.805 544.453 270.574C544.211 270.548 544.171 270.928 544.397 270.99C548.024 271.981 551.447 273.642 554.189 276.254C557.018 278.951 558.979 282.429 559.824 286.245C560.069 287.346 560.221 288.466 560.282 289.591C560.343 290.715 560.159 291.846 560.23 292.959C560.275 293.654 561.26 293.832 561.468 293.127C561.758 292.142 561.697 290.982 561.658 289.966ZM560.859 297.123C560.85 297.035 560.838 296.948 560.825 296.86C560.809 296.764 560.753 296.713 560.723 296.628C560.688 296.533 560.543 296.461 560.466 296.56C560.42 296.62 560.353 296.649 560.305 296.712C560.259 296.773 560.226 296.847 560.187 296.913C560.108 297.048 560.033 297.187 559.959 297.326C559.793 297.638 559.679 297.975 559.541 298.299C559.569 298.233 559.485 298.422 559.476 298.442C559.305 298.815 559.108 299.176 558.889 299.523C558.845 299.592 558.796 299.659 558.753 299.729C558.667 299.87 558.645 299.992 558.625 300.155C558.568 300.628 559.183 300.902 559.546 300.683C559.878 300.484 560.053 300.031 560.215 299.691C560.373 299.357 560.516 299.014 560.639 298.665C560.755 298.333 560.852 297.986 560.874 297.633C560.883 297.463 560.878 297.293 560.859 297.123ZM516.926 309.256C516.472 308.993 515.92 308.874 515.439 308.658C513.99 308.004 512.661 307.111 511.509 306.016C510.741 305.285 510.039 304.494 509.441 303.617C508.847 302.746 508.274 301.814 507.852 300.848C507.772 300.665 507.478 300.796 507.532 300.983C507.85 302.075 508.234 303.078 508.832 304.05C509.42 305.006 510.119 305.912 510.914 306.705C511.701 307.49 512.572 308.186 513.51 308.782C513.999 309.092 514.506 309.372 515.029 309.62C515.543 309.863 516.097 310.151 516.663 310.223C517.197 310.292 517.338 309.495 516.926 309.256Z" fill="#FF80CD"/>
</svg>
